<svg width="45" height="45" viewBox="0 0 45 45" fill="none" xmlns="http://www.w3.org/2000/svg">
<g clip-path="url(#clip0_312:954)">
<path d="M44.25 15C44.2455 12.763 42.5984 10.869 40.3838 10.554C39.6475 5.7958 35.5648 2.27662 30.75 2.25C30.5588 2.25 30.3578 2.2725 30.162 2.28375C29.4552 1.02973 28.1897 0.190996 26.7594 0.0286924C25.3291 -0.133611 23.9078 0.400232 22.938 1.464C21.607 0.511933 20.0115 3.4365e-05 18.375 0C15.8316 0.0127064 13.4487 1.24514 11.9685 3.3135C10.2689 2.72037 8.38796 2.97827 6.91073 4.00698C5.4335 5.0357 4.5392 6.71043 4.50601 8.51025C2.29726 9.25263 1.04655 11.5846 1.65001 13.8353C0.572863 15.3887 -0.00293381 17.2346 1.12412e-05 19.125C-0.00278076 22.0638 1.37394 24.8335 3.71834 26.6056C6.06273 28.3776 9.10295 28.9466 11.9295 28.1423C12.9094 30.2499 14.8584 31.7449 17.148 32.1451C19.4376 32.5454 21.7782 31.8002 23.415 30.15C24.3373 30.4634 25.2968 30.6542 26.2688 30.7178C26.4075 33.5228 27.486 35.2043 32.013 36.7133C34.9523 37.6928 35.7368 39.6818 35.9423 40.7805C36.0819 41.4917 36.707 42.0035 37.4318 42H39.72C40.1335 42.0007 40.529 41.8307 40.8129 41.5301C41.0969 41.2295 41.2442 40.8251 41.22 40.4123C41.1083 38.6123 40.6095 34.4445 38.4368 31.7985C40.9374 30.4319 42.7114 28.0357 43.2885 25.245C45.3324 22.8655 45.5709 19.4261 43.875 16.7873C44.1202 16.2232 44.2478 15.6151 44.25 15ZM42.0555 24.384L42.0383 24.402C40.9711 25.5746 39.4605 26.2451 37.875 26.25C36.9875 26.2531 36.1124 26.0408 35.325 25.6313C34.9677 25.4468 34.6323 25.2227 34.3253 24.963C35.3273 23.8189 35.5372 22.1822 34.8563 20.8223C34.7357 20.5827 34.4965 20.4257 34.2287 20.4103C33.961 20.395 33.7054 20.5236 33.5582 20.7478C33.4111 20.972 33.3947 21.2577 33.5153 21.4973C33.6711 21.8085 33.7515 22.152 33.75 22.5C33.751 23.5444 33.0331 24.4522 32.0166 24.692C31 24.9318 29.9521 24.4405 29.4863 23.5058C29.3657 23.2662 29.1265 23.1092 28.8587 23.0938C28.591 23.0785 28.3354 23.2071 28.1882 23.4313C28.0411 23.6555 28.0247 23.9412 28.1453 24.1808C29.0488 26.0028 31.2455 26.7648 33.0833 25.8938C33.5503 26.3238 34.0751 26.6866 34.6425 26.9715C36.6761 28.0196 39.0923 28.0132 41.1203 26.9543C39.9462 29.3115 37.7097 30.96 35.1105 31.3838C34.7232 31.4443 34.4478 31.793 34.4787 32.1838C34.5095 32.5746 34.8362 32.8758 35.2283 32.8748C35.2685 32.8749 35.3086 32.8716 35.3483 32.865C35.9113 32.7728 36.465 32.6305 37.0028 32.4398C39.1328 34.6785 39.6143 38.7863 39.72 40.503H37.4168C37.2023 39.3578 36.2918 36.5573 32.487 35.289C28.6193 33.9998 27.8768 32.829 27.768 30.7208H27.8085C28.6569 30.6623 29.4958 30.5073 30.309 30.2588C30.705 30.1372 30.9275 29.7176 30.8059 29.3216C30.6843 28.9256 30.2648 28.7032 29.8688 28.8248C29.1598 29.0414 28.4282 29.1758 27.6885 29.2253C26.2545 29.3371 24.8139 29.12 23.4765 28.5908C23.1803 28.4797 22.8464 28.5626 22.6365 28.7993C21.3234 30.3243 19.2951 31.0309 17.3186 30.6518C15.3422 30.2728 13.7192 28.8659 13.0635 26.9633V26.9588C12.5161 25.3894 12.6953 23.6578 13.5525 22.2338C13.766 21.8788 13.6514 21.4179 13.2964 21.2044C12.9414 20.9909 12.4805 21.1055 12.267 21.4605C11.9347 22.0142 11.6796 22.6107 11.5088 23.2335C10.8692 23.3185 10.2244 23.1207 9.74254 22.6917C9.26068 22.2627 8.98959 21.6451 9.00001 21V20.97C8.99944 20.7726 8.91975 20.5837 8.77879 20.4456C8.63782 20.3074 8.44735 20.2316 8.25001 20.235C7.83304 20.2424 7.49913 20.583 7.50001 21C7.50249 23.07 9.17997 24.7475 11.25 24.75H11.2755C11.2688 24.876 11.25 25.0005 11.25 25.125C11.2517 25.6642 11.3148 26.2014 11.4383 26.7263C9.07106 27.367 6.54048 26.8691 4.59255 25.3792C2.64461 23.8893 1.50142 21.5774 1.50001 19.125C1.49776 17.8433 1.81207 16.581 2.41501 15.45C2.75962 15.9154 3.19106 16.3096 3.68551 16.611C3.91528 16.7489 4.20114 16.7537 4.43541 16.6236C4.66968 16.4936 4.81678 16.2484 4.82129 15.9805C4.82579 15.7126 4.68703 15.4626 4.45726 15.3248C3.29877 14.632 2.74561 13.2508 3.10563 11.9499C3.46565 10.6489 4.65018 9.74863 6.00001 9.75C6.9465 9.7465 7.83795 10.1945 8.40001 10.956C8.64854 11.2874 9.11864 11.3545 9.45001 11.106C9.78138 10.8575 9.84854 10.3874 9.60001 10.056C8.76017 8.92019 7.43135 8.25008 6.01876 8.25C6.21464 6.12761 7.9936 4.50298 10.125 4.5C10.4876 4.50219 10.8483 4.55263 11.1975 4.65C11.0167 5.04439 10.8687 5.45303 10.755 5.87175C10.7046 6.0643 10.7328 6.269 10.8333 6.44077C10.9339 6.61253 11.0987 6.73727 11.2913 6.7875C11.4838 6.83793 11.6885 6.80976 11.8603 6.70917C12.032 6.60859 12.1568 6.44385 12.207 6.25125C12.3553 5.68001 12.5825 5.13224 12.882 4.62375C14.0397 2.69252 16.1234 1.50761 18.375 1.5C19.7209 1.49921 21.0322 1.92598 22.1198 2.71875C21.8756 3.28085 21.7498 3.88717 21.75 4.5C21.75 4.91421 22.0858 5.25 22.5 5.25C22.9142 5.25 23.25 4.91421 23.25 4.5C23.25 2.84315 24.5932 1.5 26.25 1.5C27.9069 1.5 29.25 2.84315 29.25 4.5C29.25 4.91421 29.5858 5.25 30 5.25C30.4142 5.25 30.75 4.91421 30.75 4.5C30.7487 4.24854 30.7261 3.99765 30.6825 3.75H30.75C34.7555 3.77104 38.1746 6.64965 38.8778 10.593C38.2153 10.7203 37.5904 10.9962 37.05 11.4C36.7186 11.6485 36.6515 12.1186 36.9 12.45C37.1485 12.7814 37.6186 12.8485 37.95 12.6C39.086 11.7469 40.6645 11.8075 41.7317 12.7452C42.7989 13.6828 43.0621 15.2405 42.3623 16.4768C42.0507 17.0194 41.5793 17.4526 41.0123 17.7173C40.637 17.8929 40.4751 18.3395 40.6508 18.7148C40.8264 19.09 41.273 19.2519 41.6483 19.0763C42.1229 18.8497 42.5544 18.5421 42.9233 18.1673C43.932 20.2225 43.5865 22.685 42.051 24.3833L42.0555 24.384Z" fill="#51B1A6"/>
<path d="M29.25 14.25H27.5655L26.2208 9.54371C26.131 9.21296 25.8252 8.98766 25.4828 8.99996C25.141 9.00765 24.8477 9.24544 24.7695 9.57821L22.5593 18.975L20.235 7.34996C20.164 7.00041 19.8567 6.74921 19.5 6.74921C19.1433 6.74921 18.836 7.00041 18.765 7.34996L17.385 14.25H12.75C12.3358 14.25 12 14.5857 12 15C12 15.4142 12.3358 15.75 12.75 15.75H18C18.3565 15.75 18.6637 15.4992 18.735 15.15L19.5 11.325L21.765 22.65C21.8353 22.9946 22.1356 23.244 22.4873 23.25H22.5C22.8482 23.2502 23.1508 23.0107 23.2305 22.6717L25.5705 12.726L26.2793 15.2062C26.3713 15.528 26.6653 15.7498 27 15.75H29.25C29.6642 15.75 30 15.4142 30 15C30 14.5857 29.6642 14.25 29.25 14.25Z" fill="#51B1A6"/>
<path d="M32.5762 14.1523H31.0762C30.662 14.1523 30.3262 14.4881 30.3262 14.9023C30.3262 15.3165 30.662 15.6523 31.0762 15.6523H32.5762C32.9904 15.6523 33.3262 15.3165 33.3262 14.9023C33.3262 14.4881 32.9904 14.1523 32.5762 14.1523Z" fill="#51B1A6"/>
</g>
<defs>
<clipPath id="clip0_312:954">
<rect width="45" height="45" fill="white"/>
</clipPath>
</defs>
</svg>
