<svg width="45" height="45" viewBox="0 0 45 45" fill="none" xmlns="http://www.w3.org/2000/svg">
<path d="M31.3533 34.3079L30.9153 33.0613C30.5779 33.1913 30.2066 33.2207 29.8448 33.2044L29.8281 34.5286C29.8677 34.529 30.9471 34.4565 31.3533 34.3079Z" fill="#51B1A6"/>
<path d="M32.7412 11.5907C32.019 10.8537 31.0608 10.4565 30.0375 10.4687L26.9162 10.5098C25.5134 9.18218 24.2161 6.98595 22.0499 7.0723C21.0284 7.0723 20.0733 7.48343 19.3604 8.23004L17.1836 10.5098C15.2723 10.5831 12.8303 9.96754 11.3588 11.5906C10.6365 12.3275 10.246 13.3073 10.2591 14.3495L10.2994 17.5345C8.99833 18.9659 6.84603 20.2897 6.93064 22.5001C6.93064 23.5424 7.33356 24.5171 8.06524 25.2445L10.2994 27.4657C10.3725 29.4221 9.76531 31.9024 11.3586 33.4094C12.0809 34.1464 13.0412 34.5442 14.0623 34.5315L17.1836 34.4904C18.5864 35.818 19.8837 38.0142 22.0498 37.9279C23.0714 37.9279 24.0265 37.5168 24.7394 36.7702L26.9162 34.4904L28.5304 34.5117L28.5471 33.1875L26.3756 33.1589L23.8099 35.846C23.3434 36.3346 22.7184 36.6037 22.0498 36.6037C21.3813 36.6037 20.7563 36.3346 20.2898 35.846L17.7241 33.1589L14.0456 33.2073C13.3755 33.2171 12.749 32.9554 12.2763 32.4731C11.8037 31.9909 11.5482 31.3497 11.5568 30.6677L11.6042 26.914L8.9709 24.2959C8.49211 23.8199 8.22841 23.1821 8.22841 22.5C8.22841 21.8178 8.49211 21.18 8.9709 20.704L11.6042 18.086L11.5568 14.3324C11.5482 13.6504 11.8037 13.0093 12.2764 12.527C12.749 12.0448 13.3745 11.7808 14.0457 11.7928L17.7242 11.8412L20.29 9.1541C20.7565 8.66554 21.3815 8.39646 22.05 8.39646C22.7185 8.39646 23.3435 8.66554 23.81 9.1541L26.3757 11.8412L30.0543 11.7928C30.7255 11.7829 31.3509 12.0448 31.8236 12.5271C32.2961 13.0093 32.5517 13.6505 32.543 14.3324L32.4956 18.0861L35.129 20.7042C35.6078 21.1802 35.8715 21.818 35.8715 22.5001C35.8715 23.1823 35.6078 23.8201 35.129 24.2961L32.4956 26.9141L32.543 30.6678C32.5519 31.3612 32.2888 32.01 31.8023 32.4946L32.7088 33.4421C34.3423 31.9331 33.7276 29.4363 33.8005 27.4657C35.1015 26.0343 37.2538 24.7105 37.1692 22.5001C37.1692 21.4578 36.7663 20.4831 36.0346 19.7557L33.8005 17.5345L33.8407 14.3496C33.8538 13.3074 33.4633 12.3276 32.7412 11.5907V11.5907Z" fill="#51B1A6"/>
<path d="M21.4009 17.2031C21.4009 16.6118 21.246 16.0313 20.9532 15.5242L19.8351 16.1965C20.6061 17.4666 19.6266 19.2273 18.1564 19.1894C17.0831 19.1894 16.2098 18.2984 16.2098 17.2031C16.1734 15.7097 17.884 14.709 19.1296 15.4821L19.7796 14.3361C17.703 13.0462 14.8517 14.7131 14.9121 17.2031C15.0243 21.5684 21.2892 21.5679 21.4009 17.2031Z" fill="#51B1A6"/>
<path d="M27.2411 29.7833C31.5193 29.6686 31.5184 23.2761 27.241 23.162C22.9628 23.2768 22.9637 29.6692 27.2411 29.7833ZM27.2411 24.4863C29.8079 24.5551 29.8074 28.3906 27.241 28.459C24.6742 28.3903 24.6747 24.5547 27.2411 24.4863Z" fill="#51B1A6"/>
<path d="M18.8055 29.1062V27.782H20.1033V26.4577H18.8055V25.1335H17.5077V26.4577H16.21V27.782H17.5077V29.1062H18.8055Z" fill="#51B1A6"/>
<path d="M26.7891 19.7369C27.2876 19.7369 27.7861 19.5433 28.1656 19.156L30.0009 17.2833C31.7679 15.3835 29.1107 12.6704 27.2479 14.4742L25.4126 16.3469C24.1807 17.5499 25.1054 19.7819 26.7891 19.7369V19.7369ZM26.3303 17.2833L28.1656 15.4105C28.7681 14.8021 29.6803 15.7313 29.0832 16.3469L27.2479 18.2197C26.6456 18.8281 25.733 17.8991 26.3303 17.2833Z" fill="#51B1A6"/>
<path d="M42.8022 19.8515V21.8378H40.1732C40.0128 19.4248 38.35 17.863 36.7452 16.2899C36.7894 14.0173 36.8835 11.7135 35.3244 9.89099L37.1828 7.99467L38.5593 9.39925L39.4769 8.46292L35.8063 4.71742L34.8887 5.65375L36.2652 7.05833L34.4067 8.95466C32.6207 7.36344 30.3612 7.45976 28.1359 7.50487C26.593 5.86607 25.0635 4.17077 22.6988 4.00691V1.32425H24.6455V0H19.4544V1.32425H21.4011V4.00691C19.0363 4.1705 17.5057 5.86739 15.9641 7.50487L14.2637 7.5039L14.263 8.82815L16.5018 8.82938C18.082 7.23737 19.5769 5.2005 22.05 5.29761C24.5325 5.20421 26.0141 7.23605 27.5981 8.82938C29.8181 8.84422 32.29 8.48208 33.9712 10.3356C35.7917 12.0607 35.4308 14.569 35.4472 16.8387C37.0074 18.4511 39.0035 19.9765 38.9083 22.5C38.9999 25.0332 37.0087 26.5451 35.4472 28.1614C35.4325 30.4284 35.7879 32.9481 33.9711 34.6646C32.28 36.5225 29.8227 36.1538 27.5981 36.1707C26.0179 37.7627 24.5231 39.7996 22.05 39.7025C19.5674 39.7959 18.0858 37.764 16.5018 36.1707C14.2818 36.1559 11.8099 36.518 10.1287 34.6645C8.3082 32.9394 8.66915 30.4311 8.65271 28.1614C7.09254 26.549 5.0964 25.0236 5.19157 22.5C5.10004 19.9668 7.09124 18.455 8.65271 16.8387L8.65124 13.9777C8.64994 11.3932 10.5402 9.19726 13.048 8.86982L12.8832 7.55625C11.6768 7.71375 10.5846 8.2159 9.69516 8.95669L7.83477 7.05833L9.21127 5.65375L8.29358 4.71733L4.62298 8.46283L5.54059 9.39916L6.91708 7.99458L8.77807 9.89355C7.22725 11.72 7.30702 13.984 7.35469 16.2898C5.74866 17.8641 4.08735 19.4248 3.92669 21.8377H1.29776V19.8514H0V25.1484H1.29776V23.162H3.92677C4.08709 25.5751 5.75005 27.1369 7.35477 28.71C7.31056 30.9826 7.21652 33.2863 8.77556 35.1089L6.91717 37.0052L5.54067 35.6007L4.62307 36.537L8.29366 40.2825L9.21127 39.3462L7.83477 37.9416L9.69317 36.0453C11.4793 37.6366 13.7387 37.5402 15.9641 37.495C17.5069 39.1338 19.0365 40.8291 21.4011 40.993V43.6756H19.4544V44.9998H24.6455V43.6756H22.6988V40.993C25.0636 40.8293 26.5942 39.1325 28.1359 37.495C30.3627 37.5402 32.6208 37.6361 34.4067 36.0453L36.2651 37.9416L34.8886 39.3462L35.8063 40.2825L39.4768 36.537L38.5592 35.6007L37.1827 37.0052L35.3243 35.1089C36.8837 33.2865 36.7894 30.9808 36.7451 28.7101C38.3512 27.1356 40.0126 25.5749 40.1731 23.162H42.8021V25.1484H44.0999V19.8514H42.8022V19.8515Z" fill="#51B1A6"/>
</svg>
