<svg width="17" height="16" viewBox="0 0 17 16" fill="none" xmlns="http://www.w3.org/2000/svg">
<g clip-path="url(#clip0_321:4651)">
<path d="M6.36642 14.5334C6.73124 14.5334 7.02698 14.2376 7.02698 13.8728C7.02698 13.508 6.73124 13.2123 6.36642 13.2123C6.00161 13.2123 5.70587 13.508 5.70587 13.8728C5.70587 14.2376 6.00161 14.5334 6.36642 14.5334Z" stroke="white" stroke-width="1.66876" stroke-linecap="round" stroke-linejoin="round"/>
<path d="M13.6324 14.5334C13.9972 14.5334 14.293 14.2376 14.293 13.8728C14.293 13.508 13.9972 13.2123 13.6324 13.2123C13.2676 13.2123 12.9719 13.508 12.9719 13.8728C12.9719 14.2376 13.2676 14.5334 13.6324 14.5334Z" stroke="white" stroke-width="1.66876" stroke-linecap="round" stroke-linejoin="round"/>
<path d="M1.08197 0.661743H3.72418L5.49446 9.50654C5.55486 9.81065 5.72031 10.0838 5.96183 10.2783C6.20335 10.4727 6.50556 10.576 6.81556 10.57H13.2361C13.5461 10.576 13.8483 10.4727 14.0899 10.2783C14.3314 10.0838 14.4968 9.81065 14.5572 9.50654L15.6141 3.9645H4.38473" stroke="white" stroke-width="1.66876" stroke-linecap="round" stroke-linejoin="round"/>
</g>
<defs>
<clipPath id="clip0_321:4651">
<rect width="15.8532" height="15.8532" fill="white" transform="translate(0.421448 0.0012207)"/>
</clipPath>
</defs>
</svg>
