<svg width="20" height="20" viewBox="0 0 20 20" fill="none" xmlns="http://www.w3.org/2000/svg">
<g clip-path="url(#clip0_872_1090)">
<path d="M7.62492 17.9167C8.06214 17.9167 8.41658 17.5622 8.41658 17.125C8.41658 16.6878 8.06214 16.3333 7.62492 16.3333C7.18769 16.3333 6.83325 16.6878 6.83325 17.125C6.83325 17.5622 7.18769 17.9167 7.62492 17.9167Z" stroke="white" stroke-width="2" stroke-linecap="round" stroke-linejoin="round"/>
<path d="M16.3334 17.9167C16.7706 17.9167 17.1251 17.5622 17.1251 17.125C17.1251 16.6878 16.7706 16.3333 16.3334 16.3333C15.8962 16.3333 15.5417 16.6878 15.5417 17.125C15.5417 17.5622 15.8962 17.9167 16.3334 17.9167Z" stroke="white" stroke-width="2" stroke-linecap="round" stroke-linejoin="round"/>
<path d="M1.29175 1.29166H4.45841L6.58008 11.8921C6.65247 12.2566 6.85076 12.584 7.14022 12.817C7.42968 13.05 7.79188 13.1738 8.16341 13.1667H15.8584C16.2299 13.1738 16.5921 13.05 16.8816 12.817C17.1711 12.584 17.3694 12.2566 17.4417 11.8921L18.7084 5.24999H5.25008" stroke="white" stroke-width="2" stroke-linecap="round" stroke-linejoin="round"/>
</g>
<defs>
<clipPath id="clip0_872_1090">
<rect width="19" height="19" fill="white" transform="translate(0.5 0.5)"/>
</clipPath>
</defs>
</svg>
