<svg width="640" height="359" viewBox="0 0 640 359" fill="none" xmlns="http://www.w3.org/2000/svg">
<path d="M513.583 225.454C514.201 225.597 509.577 248.887 509.577 248.887H497.703L492.462 226.373C499.269 224.049 506.6 223.73 513.583 225.454Z" fill="#E0E0E0"/>
<path d="M520.732 356.548C520.732 356.548 538.192 307.729 535.751 294.39C533.31 281.05 528.055 278.322 523.877 274.13C519.698 269.937 516.18 266.448 515.132 262.255C514.084 258.062 515.132 241.291 515.132 241.291C515.132 241.291 518.277 236.409 517.229 234.658C516.18 232.906 490.335 234.658 490.335 234.658C490.48 236.793 491.205 238.848 492.431 240.602C492.431 240.602 493.135 260.159 492.087 262.255C491.038 264.351 474.971 282.17 472.53 291.245C470.089 300.32 482.179 356.548 482.179 356.548H520.732Z" fill="#F5F5F5"/>
<path d="M520.731 356.548C520.501 356.536 520.271 356.536 520.042 356.548H518.075H510.493L482.178 356.419L482.408 356.606C480.972 349.427 479.306 341.443 477.669 332.569C476.032 323.696 474.338 314.032 473.146 303.665C472.874 301.067 472.615 298.425 472.558 295.754C472.494 294.428 472.576 293.099 472.802 291.791C473.15 290.486 473.631 289.221 474.238 288.014C476.91 283.042 480.029 278.322 483.556 273.914C485.323 271.617 487.146 269.334 488.998 267.022C489.932 265.873 490.865 264.725 491.77 263.519C492.008 263.206 492.228 262.88 492.43 262.542C492.579 262.154 492.681 261.749 492.732 261.336C492.846 260.575 492.89 259.828 492.933 259.067C493.191 253.022 493.019 246.891 492.832 240.688V240.588V240.487C492.535 240.025 492.267 239.546 492.028 239.051C491.342 237.709 490.922 236.246 490.793 234.744L490.449 235.117C496.35 234.744 502.165 234.457 507.866 234.356C510.665 234.255 513.468 234.365 516.251 234.686C516.505 234.733 516.752 234.815 516.983 234.93C517.117 235.166 517.177 235.436 517.156 235.706C517.112 236.355 516.972 236.994 516.739 237.601C516.247 238.853 515.637 240.055 514.916 241.191V241.277V241.363C514.657 245.829 514.485 250.222 514.471 254.544C514.437 256.696 514.518 258.848 514.715 260.991C514.979 263.132 515.779 265.172 517.041 266.922C518.238 268.604 519.568 270.189 521.018 271.66C522.454 273.096 523.89 274.532 525.326 275.896C526.787 277.168 528.164 278.535 529.447 279.988C530.585 281.404 531.549 282.951 532.318 284.597C533.851 287.872 534.909 291.348 535.463 294.921C535.642 296.625 535.642 298.343 535.463 300.047C535.348 301.741 535.118 303.393 534.874 305.03C533.84 311.505 532.347 317.421 530.954 322.777C528.083 333.46 525.383 341.874 523.517 347.646C522.583 350.518 521.851 352.729 521.348 354.265C521.104 354.998 520.918 355.558 520.788 355.974C520.659 356.39 520.616 356.563 520.616 356.563L520.846 355.988C520.989 355.586 521.205 355.026 521.463 354.308C522.009 352.873 522.784 350.604 523.761 347.732C525.699 341.989 528.47 333.575 531.399 322.892C533.044 317.039 534.386 311.106 535.42 305.116C535.664 303.479 535.908 301.813 536.037 300.09C536.223 298.343 536.223 296.582 536.037 294.835C535.498 291.197 534.434 287.657 532.878 284.324C532.035 282.587 530.979 280.962 529.734 279.485C528.428 278.012 527.033 276.622 525.556 275.321C524.12 274 522.684 272.565 521.248 271.114C519.82 269.672 518.519 268.111 517.357 266.448C516.151 264.791 515.39 262.853 515.145 260.819C514.96 258.704 514.883 256.581 514.916 254.458C514.916 250.151 515.131 245.843 515.39 241.32V241.492C516.138 240.313 516.768 239.063 517.271 237.759C517.548 237.078 517.708 236.354 517.744 235.62C517.774 235.189 517.663 234.761 517.428 234.399C517.099 234.109 516.688 233.929 516.251 233.882C513.422 233.538 510.57 233.423 507.722 233.538C501.979 233.624 496.235 233.911 490.262 234.284H489.889V234.629C489.997 236.269 490.447 237.868 491.21 239.324C491.466 239.818 491.749 240.297 492.057 240.76L491.985 240.573C492.172 246.762 492.344 252.893 492.085 258.881C492.061 259.616 491.998 260.349 491.899 261.078C491.859 261.415 491.782 261.748 491.669 262.068C491.488 262.369 491.286 262.657 491.066 262.93C490.19 264.122 489.242 265.27 488.323 266.419C486.471 268.731 484.648 271.014 482.882 273.326C479.323 277.774 476.184 282.542 473.505 287.569C472.896 288.824 472.415 290.138 472.069 291.489C471.84 292.855 471.758 294.241 471.825 295.625C471.825 298.338 472.141 300.995 472.428 303.594C473.649 314.004 475.415 323.696 477.052 332.541C478.689 341.386 480.369 349.455 481.891 356.563V356.764H482.092L510.522 356.649H518.06H519.999L520.731 356.548Z" fill="#E0E0E0"/>
<path d="M485.521 351.494C481.091 335.152 478.155 318.442 476.748 301.569C476.604 299.645 476.604 297.419 478.055 296.142C479.835 294.591 482.563 295.424 484.817 296.142C491.444 298.237 498.495 298.613 505.307 297.233C511.927 295.869 518.489 292.839 525.165 293.93C526 294.013 526.81 294.26 527.55 294.657C528.289 295.054 528.942 295.592 529.473 296.242C530.564 297.85 530.306 299.975 529.99 301.885C527.377 318.297 522.021 337.179 517.67 351.494H485.521Z" fill="#E0E0E0"/>
<path d="M481.13 298.152C481.487 298.683 481.912 299.166 482.394 299.588C483.635 300.73 484.965 301.772 486.371 302.703C491.015 305.89 496.353 307.919 501.941 308.621C507.529 309.323 513.204 308.677 518.491 306.738C520.08 306.161 521.622 305.46 523.101 304.642C523.663 304.368 524.188 304.026 524.666 303.622C524.594 303.493 522.34 304.9 518.319 306.236C513.096 308 507.541 308.56 502.071 307.873C496.6 307.187 491.356 305.272 486.73 302.273C483.069 299.975 481.231 298.051 481.13 298.152Z" fill="white"/>
<path d="M189.897 32.9759C194.368 33.4737 198.881 33.4737 203.352 32.9759C198.881 32.4782 194.368 32.4782 189.897 32.9759Z" fill="#FAFAFA"/>
<path d="M-9 358.387C-9 358.602 136.267 358.774 315.42 358.774C494.573 358.774 639.926 358.602 639.926 358.387C639.926 358.171 494.702 357.984 315.506 357.984C136.31 357.984 -9 358.186 -9 358.387Z" fill="#263238"/>
<path d="M301.005 252.175V318.8C301.006 324.394 302.342 329.908 304.902 334.882C307.462 339.857 311.172 344.149 315.723 347.402C321.683 351.653 328.821 353.937 336.141 353.935H425.165C431.83 353.94 438.36 352.048 443.989 348.479L447.062 346.497C452.057 343.333 456.174 338.959 459.03 333.782C461.886 328.604 463.39 322.789 463.402 316.876V252.175H301.005Z" fill="#263238"/>
<path d="M463.402 268.214H508.531V276.054L482.47 280.06C478.658 280.591 475.042 282.078 471.959 284.383C468.876 286.688 466.426 289.735 464.838 293.241C463.924 295.28 463.436 297.483 463.402 299.717C463.402 299.717 454.212 299.573 452.647 288.589C452.647 288.374 452.575 288.158 452.547 287.943C452.029 283.973 452.775 279.941 454.68 276.42C456.585 272.899 459.552 270.067 463.158 268.329L463.402 268.214Z" fill="#455A64"/>
<path d="M301.002 268.271H255.844V276.14L281.905 280.146C285.73 280.673 289.358 282.164 292.45 284.477C295.541 286.79 297.995 289.85 299.581 293.37C300.494 295.409 300.983 297.612 301.016 299.846C301.016 299.846 310.192 299.702 311.771 288.732L311.857 288.072C312.375 284.102 311.629 280.07 309.724 276.549C307.819 273.028 304.852 270.197 301.246 268.458L301.002 268.271Z" fill="#455A64"/>
<path d="M301.008 268.271C301.217 268.427 301.437 268.566 301.668 268.688C302.324 269.04 302.957 269.433 303.563 269.865C305.873 271.48 307.8 273.583 309.206 276.025C311.404 279.794 312.212 284.214 311.489 288.517C311.191 291.147 310.15 293.637 308.488 295.697C306.581 297.885 303.888 299.231 300.993 299.444L301.338 299.774C301.301 297.119 300.648 294.509 299.428 292.15C298.194 289.625 296.471 287.37 294.36 285.516C292.14 283.558 289.574 282.034 286.793 281.022C283.914 280.084 280.944 279.453 277.933 279.141L255.864 275.767L256.165 276.111C256.165 273.426 256.165 270.813 256.165 268.271L255.821 268.616L288.343 268.487L297.633 268.386H300.117C300.404 268.419 300.693 268.419 300.979 268.386H300.132H297.676L288.415 268.286L255.821 268.157H255.476V268.501C255.476 271.043 255.476 273.656 255.476 276.341V276.657H255.778L277.847 280.06C280.809 280.37 283.73 280.991 286.563 281.912C289.243 282.878 291.717 284.339 293.857 286.22C295.869 287.917 297.511 290.01 298.679 292.37C299.848 294.729 300.518 297.303 300.649 299.932V300.291H300.979C302.507 300.183 303.998 299.77 305.364 299.078C306.73 298.385 307.944 297.425 308.934 296.257C310.653 294.109 311.72 291.512 312.006 288.776C312.707 284.356 311.827 279.832 309.522 275.996C308.062 273.529 306.052 271.431 303.65 269.865C303.021 269.45 302.364 269.081 301.682 268.76C301.474 268.576 301.248 268.412 301.008 268.271Z" fill="#263238"/>
<path d="M303.9 253.956C304.014 254.044 304.14 254.117 304.274 254.171L305.394 254.731L309.701 256.842L312.846 258.35C314.009 258.881 315.315 259.369 316.694 259.929C319.465 261.02 322.567 262.413 326.156 263.504L331.742 265.371C333.695 266.003 335.777 266.477 337.902 267.065C342.137 268.314 346.775 269.162 351.629 270.167C362.238 272.004 372.981 272.964 383.749 273.038C394.517 272.971 405.26 272.01 415.869 270.167C420.722 269.176 425.36 268.315 429.596 267.08C431.721 266.477 433.803 266.003 435.756 265.371L441.342 263.519C444.931 262.427 448.033 261.035 450.818 259.958C452.254 259.383 453.489 258.895 454.652 258.378L457.797 256.871L462.104 254.76L463.224 254.2L463.583 253.985C463.442 254.01 463.306 254.059 463.181 254.128L462.032 254.616C460.984 255.105 459.505 255.765 457.639 256.598L454.465 258.034C453.302 258.536 451.996 258.996 450.617 259.556C447.832 260.59 444.73 261.954 441.126 263.002L435.541 264.811C433.602 265.428 431.52 265.888 429.409 266.462C425.174 267.683 420.55 268.501 415.697 269.478C405.127 271.291 394.429 272.251 383.706 272.349C372.982 272.252 362.284 271.292 351.715 269.478C346.861 268.501 342.238 267.668 338.002 266.448C335.891 265.874 333.809 265.414 331.871 264.797L326.285 262.987C322.696 261.939 319.58 260.575 316.809 259.527C315.373 258.981 314.124 258.508 312.946 258.019L309.787 256.583L305.451 254.602L304.302 254.099L303.9 253.956Z" fill="#455A64"/>
<path d="M303.804 259.47C303.804 259.47 303.919 259.556 304.178 259.685L305.298 260.259L309.605 262.37L312.75 263.806C313.913 264.323 315.22 264.811 316.584 265.385C319.369 266.477 322.471 267.869 326.06 268.961L331.646 270.813C333.599 271.445 335.666 271.919 337.791 272.522C342.099 273.771 346.679 274.618 351.533 275.623C362.138 277.46 372.876 278.42 383.639 278.495C394.406 278.421 405.149 277.461 415.759 275.623C420.627 274.618 425.264 273.771 429.5 272.522C431.625 271.933 433.707 271.459 435.66 270.827L441.246 268.975C444.835 267.884 447.937 266.491 450.708 265.4C452.144 264.84 453.393 264.351 454.556 263.82L457.658 262.399L461.965 260.288L463.085 259.728C463.344 259.599 463.473 259.527 463.458 259.513L463.056 259.656L461.908 260.159L457.514 262.14L454.341 263.576C453.163 264.064 451.871 264.538 450.478 265.084C447.707 266.132 444.591 267.482 441.002 268.544L435.416 270.339C433.478 270.956 431.396 271.416 429.27 271.99C425.049 273.211 420.411 274.044 415.572 275.02C404.998 276.833 394.295 277.794 383.567 277.892C372.843 277.801 362.144 276.84 351.576 275.02C346.737 274.044 342.113 273.225 337.878 272.005C335.767 271.43 333.685 270.971 331.732 270.353L326.161 268.544C322.557 267.482 319.455 266.132 316.67 265.084C315.234 264.538 313.985 264.064 312.822 263.562L309.648 262.126L305.255 260.144L304.106 259.656L303.804 259.47Z" fill="#455A64"/>
<path d="M334.433 356.003C322.588 354.165 316.499 347.703 313.053 336.217C311.789 332.674 311.693 328.819 312.781 325.218C314.044 321.714 317.404 318.771 321.137 318.914C325.646 319.101 328.862 323.366 330.7 327.53C332.538 331.694 333.902 336.303 337.449 339.103C340.995 341.903 347.643 341.07 348.404 336.604C348.412 335.422 348.537 334.244 348.778 333.086C349.783 330.387 354.062 330.531 355.957 332.727C357.852 334.924 357.91 338.083 357.824 340.969C357.738 343.855 357.637 346.957 359.26 349.355C361.657 352.93 366.669 353.332 370.976 353.361L396.42 353.605C396.42 353.605 392.112 355.716 380.711 355.716C365.233 355.673 334.433 356.003 334.433 356.003Z" fill="#FF8A35"/>
<path d="M383.637 353.562C392.152 353.706 401.184 353.72 408.449 349.254C413.044 346.454 416.892 341.946 422.205 341.142C423.728 340.825 425.315 341.102 426.641 341.917C427.288 342.335 427.769 342.964 428.002 343.698C428.235 344.431 428.206 345.223 427.919 345.937C430.274 345.047 432.069 343.166 434.094 341.63C436.118 340.093 438.746 338.988 441.101 339.892C442.301 340.472 443.262 341.45 443.82 342.66C444.378 343.871 444.498 345.237 444.159 346.526C443.757 347.795 443.09 348.963 442.201 349.954C441.312 350.944 440.222 351.734 439.004 352.27C436.558 353.332 433.97 354.033 431.322 354.352L370.054 355.515C370.068 353.964 383.637 353.562 383.637 353.562Z" fill="#FF8A35"/>
<path d="M431.454 357.884L431.325 354.51L334.433 356.003V357.884H431.454Z" fill="#455A64"/>
<path d="M340.624 318.8C341.77 316.879 342.418 314.703 342.508 312.469C342.598 310.234 342.128 308.013 341.141 306.006C340.265 304.269 338.47 302.546 336.618 303.134C334.766 303.723 334.392 306.006 334.435 307.844C334.536 311.85 337.422 319.948 340.624 318.771" fill="#FF8A35"/>
<path d="M397.351 198.603C397.265 198.603 397.438 199.292 397.351 200.527C397.185 202.268 396.724 203.967 395.987 205.553C394.82 207.928 393.91 210.421 393.274 212.99C392.823 216.298 393.655 219.653 395.6 222.367C397.438 225.31 399.634 227.737 401.07 230.278C401.77 231.463 402.315 232.732 402.693 234.055C402.983 235.203 403.065 236.395 402.937 237.573C402.794 239.306 402.071 240.94 400.884 242.21C400.404 242.631 399.901 243.025 399.376 243.388C399.376 243.388 399.548 243.388 399.864 243.23C400.305 243.017 400.715 242.746 401.085 242.426C402.416 241.162 403.26 239.469 403.468 237.644C403.646 236.395 403.582 235.123 403.282 233.897C402.922 232.499 402.376 231.157 401.659 229.905C400.223 227.277 398.012 224.808 396.231 221.936C394.378 219.377 393.557 216.214 393.934 213.077C394.545 210.553 395.391 208.091 396.461 205.725C397.175 204.077 397.57 202.308 397.624 200.513C397.625 200.03 397.572 199.548 397.466 199.077C397.454 198.914 397.415 198.754 397.351 198.603Z" fill="#263238"/>
<path d="M382.243 197.311C382.157 197.311 382.344 198 382.243 199.235C382.07 200.974 381.609 202.672 380.879 204.26C379.713 206.638 378.798 209.13 378.151 211.698C377.712 215.008 378.549 218.36 380.492 221.074C382.33 224.018 384.512 226.445 385.962 228.986C386.661 230.169 387.202 231.439 387.571 232.762C387.872 233.914 387.96 235.111 387.829 236.295C387.68 238.022 386.957 239.649 385.776 240.918C385.296 241.339 384.793 241.732 384.268 242.096C384.268 242.096 384.44 242.096 384.742 241.938C385.192 241.734 385.608 241.463 385.977 241.134C387.304 239.868 388.143 238.175 388.346 236.352C388.521 235.103 388.463 233.832 388.174 232.604C387.817 231.215 387.271 229.882 386.551 228.642C385.115 226.014 382.918 223.544 381.123 220.687C379.274 218.121 378.459 214.953 378.84 211.813C379.439 209.285 380.285 206.823 381.368 204.461C382.081 202.813 382.476 201.045 382.531 199.249C382.532 198.766 382.479 198.285 382.373 197.813C382.33 197.469 382.272 197.297 382.243 197.311Z" fill="#263238"/>
<path d="M367.196 196.047C367.11 196.047 367.282 196.736 367.196 197.971C366.997 199.719 366.512 201.421 365.76 203.011C364.596 205.383 363.686 207.871 363.046 210.435C362.607 213.744 363.444 217.096 365.387 219.811C367.225 222.754 369.407 225.181 370.843 227.722C371.546 228.905 372.092 230.175 372.466 231.499C372.763 232.651 372.846 233.849 372.71 235.031C372.564 236.756 371.847 238.384 370.671 239.655C370.188 240.078 369.68 240.472 369.149 240.832C369.149 240.832 369.335 240.832 369.637 240.674C370.083 240.464 370.499 240.193 370.872 239.87C372.199 238.604 373.038 236.911 373.241 235.088C373.416 233.839 373.358 232.569 373.069 231.341C372.702 229.96 372.157 228.632 371.446 227.392C370.01 224.75 367.799 222.281 366.019 219.423C364.172 216.856 363.352 213.69 363.721 210.55C364.331 208.023 365.182 205.561 366.263 203.198C366.97 201.547 367.364 199.78 367.426 197.986C367.424 197.502 367.366 197.02 367.253 196.55C367.282 196.205 367.196 196.047 367.196 196.047Z" fill="#263238"/>
<path d="M576.834 358.401C576.834 358.401 596.19 263.849 576.834 211.311H555.296C555.296 211.311 538.855 266.721 555.296 358.401H576.834Z" fill="#FF8A35"/>
<g opacity="0.7">
<path opacity="0.7" d="M576.836 358.401C576.836 358.401 596.191 263.849 576.836 211.311H555.298C555.298 211.311 538.857 266.721 555.298 358.401H576.836Z" fill="white"/>
</g>
<path d="M560.97 162.233C557.408 156.137 552.326 151.069 546.221 147.523C540.116 143.977 533.196 142.074 526.136 142.001C529.469 148.664 534.655 154.222 541.072 158.008C547.488 161.793 554.862 163.644 562.305 163.338" fill="#455A64"/>
<path d="M555.64 122.818C560.529 117.716 564.009 111.431 565.741 104.58C567.472 97.7295 567.396 90.5464 565.519 83.7338C560.026 88.7665 556.106 95.2802 554.231 102.49C552.356 109.7 552.606 117.298 554.951 124.369" fill="#455A64"/>
<path d="M574.999 123.378C580.782 121.044 585.851 117.234 589.701 112.328C593.551 107.423 596.047 101.593 596.939 95.4218C590.69 97.479 585.178 101.317 581.081 106.465C576.985 111.613 574.481 117.846 573.879 124.398" fill="#455A64"/>
<path d="M580.298 81.3933C581.279 76.9547 581.078 72.3366 579.715 68.0002C578.351 63.6638 575.874 59.7611 572.53 56.682C571.19 61.2951 571.228 66.1993 572.639 70.7912C574.05 75.3832 576.772 79.4626 580.471 82.5276" fill="#455A64"/>
<path d="M565.349 199.134C564.901 194.611 563.275 190.283 560.632 186.585C557.989 182.886 554.422 179.945 550.287 178.056C550.443 182.852 551.999 187.498 554.762 191.422C557.525 195.345 561.374 198.375 565.837 200.14" fill="#455A64"/>
<path d="M588.781 41.8209C588.781 41.8209 584.904 56.3088 580.381 80.1011L578.658 89.4486C578.069 92.6936 577.567 96.0966 576.992 99.6145C575.801 106.622 574.824 114.174 573.733 122.1C571.766 137.995 570.057 155.513 569.009 173.964C567.961 192.415 567.817 210.033 568.047 226.043C568.262 234.055 568.406 241.665 568.822 248.772C569.023 252.319 569.138 255.765 569.368 259.053C569.598 262.341 569.842 265.515 570.072 268.53C571.967 292.681 574.236 307.485 574.236 307.485C574.236 307.485 574.236 307.255 574.236 306.796L573.963 304.857C573.762 303.048 573.489 300.449 573.13 297.104C572.943 295.424 572.728 293.557 572.513 291.504C572.297 289.451 572.11 287.196 571.895 284.841C571.493 280.046 570.919 274.604 570.56 268.573C570.359 265.539 570.143 262.38 569.914 259.096C569.698 255.794 569.598 252.362 569.425 248.815C569.023 241.708 568.908 234.112 568.707 226.114C568.521 210.119 568.707 192.515 569.727 174.079C570.746 155.642 572.469 138.182 574.394 122.258C575.456 114.332 576.404 106.794 577.581 99.7725C578.141 96.269 578.629 92.8659 579.204 89.6065C579.778 86.3471 580.338 83.2456 580.869 80.259C581.889 74.3002 583.052 68.9444 583.971 64.2348C584.459 61.8799 584.904 59.6831 585.306 57.6728C585.708 55.6626 586.168 53.8247 586.541 52.1735L588.207 44.5634C588.393 43.7162 588.522 43.1275 588.637 42.5819C588.752 42.0362 588.781 41.8209 588.781 41.8209Z" fill="#263238"/>
<path d="M541.184 76.2816C541.205 76.4587 541.248 76.6324 541.313 76.7986C541.428 77.1575 541.571 77.6457 541.772 78.2344L543.582 83.8343L544.917 87.8834C545.362 89.3193 545.85 90.9849 546.353 92.7223C547.372 96.2115 548.636 100.146 549.785 104.583C550.373 106.794 551.005 109.106 551.651 111.518C552.297 113.93 552.857 116.457 553.503 119.07C554.824 124.283 555.959 129.911 557.208 135.827C559.534 147.687 561.674 160.811 563.239 174.682C564.804 188.552 565.493 201.834 565.809 213.924C565.809 219.969 565.996 225.712 565.809 231.082C565.809 233.768 565.809 236.366 565.651 238.865C565.493 241.363 565.436 243.747 565.335 246.044C565.191 250.625 564.804 254.746 564.574 258.364C564.43 260.173 564.316 261.867 564.201 263.418C564.086 264.969 563.899 266.376 563.784 267.726C563.54 270.239 563.354 272.206 563.224 273.584C563.224 274.23 563.138 274.733 563.095 275.12C563.082 275.293 563.082 275.465 563.095 275.637C563.144 275.468 563.177 275.295 563.196 275.12C563.196 274.747 563.31 274.245 563.382 273.613C563.555 272.177 563.784 270.267 564.086 267.754L564.56 263.519C564.703 261.968 564.847 260.288 565.005 258.479C565.278 254.846 565.694 250.725 565.881 246.145C565.996 243.862 566.125 241.464 566.24 238.965C566.354 236.467 566.383 233.868 566.455 231.183C566.627 225.798 566.455 220.041 566.455 213.953C566.182 201.848 565.436 188.538 563.942 174.639C562.449 160.739 560.209 147.601 557.84 135.726C556.562 129.811 555.413 124.24 554.063 118.97C553.403 116.357 552.829 113.815 552.168 111.403C551.508 108.991 550.861 106.693 550.244 104.482C549.067 100.06 547.774 96.1253 546.712 92.6505C546.166 90.9131 545.649 89.3049 545.19 87.8116C544.73 86.3183 544.213 84.9399 543.754 83.7912C542.907 81.4077 542.318 79.4836 541.801 78.22C541.571 77.617 541.399 77.1431 541.27 76.7842C541.261 76.6139 541.232 76.4452 541.184 76.2816Z" fill="#263238"/>
<path d="M544.313 86.9789C549.022 83.0159 549.309 75.6355 546.998 69.9352C544.686 64.2348 540.335 59.6543 536.702 54.6862C533.07 49.7181 529.983 43.7736 530.815 37.6855C531.166 36.2783 531.268 34.8204 531.117 33.3779C530.815 31.9421 529.394 30.6067 528.001 31.0375C526.608 31.4683 526.264 32.8754 526.005 34.139C525.2 38.0717 524.959 42.0989 525.287 46.0997C524.345 43.7714 522.886 41.6878 521.021 40.0062C519.155 38.3247 516.932 37.0892 514.518 36.3933C514 38.7345 514.08 41.1688 514.753 43.4705C515.426 45.7722 516.669 47.8668 518.366 49.5602C515.251 48.2679 511.919 46.9326 508.603 47.5787C505.286 48.2248 502.328 51.7283 503.577 54.8729C505.013 58.4338 509.852 58.5056 513.628 59.1805C517.854 59.9515 521.669 62.195 524.397 65.5127C527.814 69.6767 529.179 75.1186 531.95 79.7421C534.721 84.3656 540.019 88.3573 545.131 86.7204" fill="#FF8A35"/>
<path d="M584.734 57.7734C579.522 54.5283 578.201 47.2484 579.694 41.2896C581.187 35.3307 584.834 30.176 587.735 24.7484C590.635 19.3208 592.861 13.003 591.181 7.08723C590.625 5.71676 590.319 4.25794 590.276 2.77963C590.377 1.34376 591.583 -0.206969 593.033 0.02277C594.483 0.252509 595.015 1.60222 595.445 2.8945C596.796 6.67098 597.599 10.6214 597.829 14.6255C598.433 12.1857 599.584 9.91545 601.196 7.98726C602.809 6.05907 604.839 4.52363 607.133 3.49757C607.976 5.74411 608.238 8.16715 607.894 10.5418C607.55 12.9164 606.612 15.1657 605.166 17.0809C608.038 15.3578 611.197 13.5773 614.557 13.7497C617.917 13.922 621.348 16.9804 620.559 20.2541C619.669 23.9874 614.815 24.7484 611.211 25.9976C607.139 27.3634 603.678 30.1184 601.433 33.78C598.647 38.3748 598.044 43.9603 595.962 48.9284C593.88 53.8965 589.185 58.6205 583.887 57.6872" fill="#FF8A35"/>
<path d="M590.896 128.863C590.68 129.15 590.501 129.464 590.365 129.796L588.929 132.525C588.326 133.716 587.608 135.181 586.847 136.918C586.086 138.656 585.138 140.594 584.248 142.805C583.358 145.017 582.338 147.415 581.376 150.057C580.414 152.699 579.424 155.513 578.404 158.499C576.48 164.501 574.599 171.192 573.005 178.286C571.411 185.379 570.335 192.257 569.559 198.517C569.215 201.647 568.856 204.634 568.683 207.434C568.511 210.234 568.324 212.833 568.224 215.216C568.123 217.6 568.109 219.753 568.08 221.649C568.051 223.544 568.08 225.167 568.08 226.502C568.08 227.837 568.224 228.756 568.224 229.575C568.224 230.393 568.224 230.637 568.31 230.637C568.35 230.279 568.35 229.918 568.31 229.56C568.31 228.799 568.31 227.78 568.31 226.502C568.31 225.224 568.31 223.544 568.396 221.649C568.482 219.753 568.482 217.614 568.655 215.245C568.827 212.876 568.927 210.262 569.2 207.477C569.473 204.691 569.775 201.733 570.133 198.603C570.952 192.372 572.086 185.537 573.623 178.501C575.159 171.465 577.083 164.76 578.964 158.758C579.955 155.771 580.874 152.928 581.836 150.315C582.798 147.702 583.731 145.261 584.621 143.049C585.512 140.838 586.359 138.871 587.091 137.134C587.823 135.396 588.527 133.903 589.058 132.697L590.322 129.897C590.546 129.571 590.738 129.225 590.896 128.863Z" fill="#263238"/>
<path d="M587.334 142.691C584.735 140.58 584.463 136.559 585.726 133.444C586.99 130.328 589.258 127.786 591.197 125.044C593.135 122.301 594.758 119.042 594.255 115.739C594.054 114.967 593.986 114.166 594.054 113.37C594.212 112.58 594.973 111.848 595.734 112.064C596.495 112.279 596.696 113.054 596.854 113.743C597.325 115.877 597.49 118.068 597.342 120.248C597.829 118.974 598.599 117.827 599.594 116.895C600.589 115.962 601.783 115.267 603.086 114.863C603.385 116.13 603.36 117.452 603.014 118.707C602.667 119.961 602.011 121.109 601.104 122.043C602.726 121.151 604.571 120.747 606.417 120.88C608.212 121.196 609.863 123.091 609.289 124.8C608.542 126.767 605.9 126.839 603.847 127.241C601.555 127.71 599.498 128.964 598.032 130.787C596.208 133.085 595.504 136.057 594.04 138.598C592.575 141.14 589.732 143.38 586.861 142.518" fill="#FF8A35"/>
</svg>
