<svg width="11" height="15" viewBox="0 0 11 15" fill="none" xmlns="http://www.w3.org/2000/svg">
<path d="M10.3361 6.75139C10.0428 6.05866 9.61629 5.4369 9.0834 4.92502L8.64366 4.50172C8.62873 4.48774 8.61075 4.47782 8.59132 4.47283C8.57188 4.46784 8.55157 4.46793 8.53218 4.47309C8.51278 4.47826 8.49489 4.48834 8.48008 4.50245C8.46526 4.51657 8.45398 4.53428 8.44721 4.55403L8.25076 5.14539C8.12836 5.51637 7.9032 5.89528 7.58435 6.26784C7.5632 6.29162 7.53902 6.29797 7.5224 6.29955C7.50578 6.30114 7.48009 6.29797 7.45742 6.27577C7.43626 6.25675 7.42569 6.22821 7.4272 6.19967C7.48311 5.24527 7.21111 4.16878 6.61572 2.99718C6.12309 2.02375 5.43855 1.26435 4.58325 0.734824L3.95915 0.349574C3.87755 0.298841 3.77329 0.365428 3.77782 0.465307L3.81106 1.2263C3.83373 1.7463 3.77631 2.20607 3.64031 2.58815C3.47408 3.05584 3.23532 3.49024 2.93008 3.88024C2.71764 4.15129 2.47687 4.39644 2.21229 4.61111C1.57505 5.12504 1.0569 5.78356 0.696626 6.53736C0.33724 7.29773 0.150036 8.13489 0.149597 8.98362C0.149597 9.73193 0.290132 10.4564 0.56818 11.1398C0.836657 11.7976 1.2241 12.3947 1.70908 12.898C2.19869 13.4053 2.76687 13.8048 3.40004 14.0822C4.05587 14.3708 4.75099 14.5166 5.46877 14.5166C6.18656 14.5166 6.88168 14.3708 7.53751 14.0838C8.16911 13.808 8.74346 13.4058 9.22846 12.8995C9.71807 12.3922 10.1019 11.7993 10.3694 11.1413C10.647 10.4599 10.7894 9.72628 10.7879 8.9852C10.7879 8.21153 10.6368 7.46006 10.3361 6.75139ZM8.50614 12.1306C7.69467 12.9741 6.61723 13.437 5.46877 13.437C4.32031 13.437 3.24288 12.9741 2.4314 12.1306C1.62295 11.2888 1.17717 10.1727 1.17717 8.9852C1.17717 8.29556 1.32526 7.63445 1.6169 7.01932C1.901 6.41846 2.32411 5.88101 2.8379 5.46722C3.16557 5.20435 3.46277 4.90212 3.72342 4.56672C4.1012 4.08317 4.39738 3.54414 4.6029 2.96547C4.6872 2.72677 4.74845 2.4798 4.78574 2.22826C5.14992 2.58022 5.45517 3.00511 5.71055 3.50292C6.21527 4.49537 6.44798 5.37844 6.40265 6.12991C6.39182 6.3069 6.41937 6.48416 6.48323 6.64837C6.5471 6.81258 6.64561 6.95946 6.77137 7.07798C6.88035 7.18126 7.0078 7.26079 7.14633 7.31196C7.28486 7.36313 7.43169 7.38491 7.57831 7.37603C7.876 7.36018 8.14952 7.22225 8.34899 6.9892C8.54997 6.75297 8.72375 6.51199 8.86881 6.26626C9.08037 6.55004 9.25717 6.85919 9.39771 7.19213C9.63798 7.7597 9.76038 8.36373 9.76038 8.9852C9.76038 10.1727 9.3146 11.2904 8.50614 12.1306Z" fill="#5A5A75"/>
</svg>
