<svg width="45" height="45" viewBox="0 0 45 45" fill="none" xmlns="http://www.w3.org/2000/svg">
<path d="M38.4099 6.59004C34.1602 2.34044 28.51 0 22.5 0C16.49 0 10.8398 2.34044 6.59013 6.59004C2.34035 10.8398 0 16.49 0 22.5C0 28.51 2.34035 34.1602 6.59013 38.41C10.8398 42.6596 16.49 45 22.5 45C28.51 45 34.1602 42.6596 38.4099 38.41C42.6596 34.1602 45 28.51 45 22.5C45 16.49 42.6596 10.8398 38.4099 6.59004ZM37.1669 37.1669C33.2493 41.0846 28.0404 43.2422 22.5 43.2422C16.9596 43.2422 11.7507 41.0846 7.83308 37.1669C3.91535 33.2493 1.75781 28.0404 1.75781 22.5C1.75781 16.9596 3.91535 11.7507 7.83308 7.83308C11.7508 3.91544 16.9596 1.75781 22.5 1.75781C28.0404 1.75781 33.2492 3.91544 37.1669 7.83308C41.0846 11.7507 43.2422 16.9596 43.2422 22.5C43.2422 28.0404 41.0846 33.2493 37.1669 37.1669Z" fill="#51B1A6"/>
<path d="M37.0311 10.8368C36.8746 10.6424 36.6429 10.5237 36.3937 10.5102C36.1447 10.4968 35.9012 10.5898 35.7248 10.7663L30.2216 16.2695C30.1716 16.2478 30.12 16.2289 30.0656 16.2166C29.1597 16.0126 28.2437 15.9936 27.3631 16.1448L34.2333 9.27468C34.4098 9.0982 34.5029 8.855 34.4895 8.60583C34.476 8.35658 34.3573 8.12481 34.1628 7.96845C27.9651 2.98215 19.2826 2.48715 12.5576 6.73658C12.1472 6.99585 12.0248 7.53875 12.2841 7.94911C12.5433 8.35948 13.0863 8.48182 13.4965 8.22263C19.3078 4.5503 26.7335 4.79076 32.2776 8.74444L26.1812 14.8407C26.0687 12.5956 24.8865 10.5621 22.9692 9.34983C22.6822 9.16842 22.3167 9.16842 22.0298 9.34983C20.0125 10.6255 18.8081 12.81 18.8081 15.1937C18.8081 15.6379 18.85 16.0752 18.9311 16.501C17.6791 16.0203 16.2947 15.9101 14.9334 16.2166C14.6024 16.2913 14.3438 16.5498 14.2692 16.881C13.8003 18.9624 14.3051 21.0977 15.6214 22.7313C15.3919 22.7596 15.1623 22.7989 14.9334 22.8504C14.6024 22.9251 14.3438 23.1836 14.2692 23.5148C14.026 24.5943 14.0449 25.6882 14.3027 26.7192L8.74383 32.2782C4.79086 26.7349 4.55004 19.3099 8.22088 13.499C8.48007 13.0886 8.35755 12.5457 7.94719 12.2865C7.53691 12.0272 6.99401 12.1498 6.73473 12.5601C2.48672 19.2847 2.98233 27.9663 7.96784 34.1633C8.12429 34.3577 8.35605 34.4764 8.60522 34.49C8.62104 34.4909 8.63686 34.4913 8.65268 34.4913C8.88515 34.4913 9.10884 34.3991 9.27416 34.2339L15.0195 28.4885C15.3187 29.0057 15.6874 29.4893 16.1232 29.9249C16.1973 29.999 16.2732 30.0707 16.3501 30.1409L10.7657 35.7253C10.5892 35.9018 10.4961 36.145 10.5095 36.3941C10.523 36.6434 10.6417 36.8752 10.8362 37.0315C14.1454 39.6939 18.2539 41.1324 22.4974 41.1323C22.815 41.1323 23.1336 41.1242 23.4525 41.1081C28.0654 40.8735 32.4061 38.9442 35.6748 35.6754C38.9436 32.4066 40.8729 28.0659 41.1075 23.453C41.3404 18.8743 39.8927 14.3938 37.0311 10.8368ZM29.1107 17.8358C29.2849 19.3873 28.7527 20.9285 27.6328 22.0483C26.5128 23.1683 24.9716 23.7005 23.4203 23.5262C23.246 21.9749 23.7783 20.4337 24.8982 19.3138C26.0182 18.1938 27.5591 17.6615 29.1107 17.8358ZM24.8982 25.9475C26.0182 24.8276 27.5591 24.2954 29.1107 24.4697C29.2849 26.0211 28.7527 27.5623 27.6328 28.6821C26.5128 29.8021 24.9716 30.3344 23.4203 30.16C23.2461 28.6085 23.7783 27.0674 24.8982 25.9475ZM22.4995 11.17C23.7197 12.1438 24.4331 13.6099 24.4331 15.1937C24.4331 16.7775 23.7197 18.2436 22.4995 19.2173C21.2793 18.2436 20.5659 16.7775 20.5659 15.1937C20.5659 13.6099 21.2793 12.1438 22.4995 11.17ZM15.8883 17.8358C17.4396 17.6616 18.9808 18.1938 20.1007 19.3138C21.2206 20.4337 21.7529 21.9748 21.5786 23.5262C20.0273 23.7003 18.4861 23.1682 17.3662 22.0483C16.2463 20.9284 15.7141 19.3873 15.8883 17.8358ZM15.8883 24.4696C17.4399 24.2952 18.9808 24.8275 20.1008 25.9474C21.2207 27.0673 21.753 28.6085 21.5787 30.16C20.0274 30.3342 18.4862 29.8019 17.3662 28.682C16.2463 27.5622 15.7141 26.0211 15.8883 24.4696ZM39.352 23.3638C39.1396 27.5411 37.3923 31.4721 34.4319 34.4325C31.4715 37.3929 27.5406 39.1402 23.3632 39.3526C19.5452 39.5461 15.804 38.4516 12.7215 36.2554L17.8105 31.1665C18.7911 31.6805 19.8814 31.9509 20.996 31.9509C21.2036 31.9509 21.4119 31.9411 21.6205 31.9223V34.9074C21.6205 35.3927 22.014 35.7863 22.4994 35.7863C22.9848 35.7863 23.3783 35.3927 23.3783 34.9074V31.9223C23.5869 31.9411 23.7953 31.9509 24.0028 31.9509C25.8131 31.9509 27.5608 31.2399 28.8756 29.925C30.5611 28.2395 31.2542 25.8433 30.7297 23.5148C30.655 23.1836 30.3965 22.9251 30.0654 22.8504C29.8365 22.7989 29.607 22.7596 29.3775 22.7313C30.4404 21.4119 30.9736 19.7656 30.8925 18.0844L36.2548 12.7221C38.4511 15.8046 39.5462 19.5461 39.352 23.3638Z" fill="#51B1A6"/>
<path d="M9.94629 10.8257C10.4317 10.8257 10.8252 10.4322 10.8252 9.94681C10.8252 9.4614 10.4317 9.0679 9.94629 9.0679C9.46088 9.0679 9.06738 9.4614 9.06738 9.94681C9.06738 10.4322 9.46088 10.8257 9.94629 10.8257Z" fill="#51B1A6"/>
</svg>
