<svg width="16" height="16" viewBox="0 0 16 16" fill="none" xmlns="http://www.w3.org/2000/svg">
<path d="M3.91498 8.84433C3.49214 8.75994 3.09052 8.59162 2.73386 8.34931C2.3772 8.10701 2.07275 7.79565 1.83851 7.43365C1.60427 7.07164 1.445 6.66634 1.37012 6.24171C1.29523 5.81708 1.30626 5.38175 1.40254 4.96145C1.49882 4.54116 1.6784 4.14444 1.93066 3.79476C2.18292 3.44507 2.50274 3.14952 2.87121 2.92558C3.23968 2.70164 3.64931 2.55386 4.07588 2.49098C4.50245 2.4281 4.9373 2.45139 5.35471 2.55949C5.65631 2.1766 6.0409 1.86718 6.4795 1.65458C6.91809 1.44198 7.39923 1.33173 7.88664 1.33215C8.38808 1.33172 8.8827 1.44839 9.33108 1.67287C9.77947 1.89736 10.1692 2.22345 10.4693 2.62518C10.8875 2.48332 11.3304 2.42885 11.7705 2.46514C12.2106 2.50143 12.6385 2.62772 13.0278 2.83617C13.4171 3.04463 13.7595 3.33081 14.0336 3.67698C14.3078 4.02315 14.508 4.42194 14.6217 4.84863C14.7354 5.27533 14.7603 5.72083 14.6949 6.15754C14.6294 6.59425 14.4749 7.01287 14.241 7.38744C14.0072 7.76201 13.6989 8.08456 13.3352 8.3351C12.9716 8.58565 12.5604 8.75884 12.1271 8.84396V14.7701C12.1271 14.9681 12.0484 15.158 11.9084 15.298C11.7684 15.438 11.5785 15.5166 11.3805 15.5166H4.66154C4.46354 15.5166 4.27365 15.438 4.13364 15.298C3.99364 15.158 3.91498 14.9681 3.91498 14.7701V8.84433Z" stroke="#5A5A75" stroke-width="0.834381" stroke-linecap="round" stroke-linejoin="round"/>
<path d="M3.91498 11.4106H12.127" stroke="#5A5A75" stroke-width="0.834381" stroke-linecap="round" stroke-linejoin="round"/>
<path d="M6.52795 9.17102V11.4107" stroke="#5A5A75" stroke-width="0.834381" stroke-linecap="round" stroke-linejoin="round"/>
<path d="M12.127 10.2909V12.5305" stroke="#5A5A75" stroke-width="0.834381" stroke-linecap="round" stroke-linejoin="round"/>
<path d="M3.91498 10.2909V12.5305" stroke="#5A5A75" stroke-width="0.834381" stroke-linecap="round" stroke-linejoin="round"/>
</svg>
