<svg width="45" height="45" viewBox="0 0 45 45" fill="none" xmlns="http://www.w3.org/2000/svg">
<g clip-path="url(#clip0_312:881)">
<path d="M2.40067 14.674C2.19957 15.0062 2.30583 15.4385 2.63806 15.6396C2.97029 15.8407 3.40262 15.7343 3.60363 15.4022C3.76236 15.1401 3.95062 14.8731 4.16331 14.6091C4.35017 14.377 4.37047 14.0525 4.21412 13.7989C4.19944 13.7751 2.75786 11.4029 3.37731 9.34039C3.67174 8.36015 4.41442 7.58776 5.58477 7.04469C5.79184 6.94854 5.93941 6.7579 5.98045 6.53343C5.98529 6.50715 6.48231 3.89557 8.3629 2.86215C9.42278 2.27979 10.7633 2.31002 12.3472 2.9518C12.6029 3.0556 12.8959 2.99979 13.0958 2.80977C14.9126 1.08236 17.5084 1.50081 18.7422 2.98405C18.9569 3.24228 19.3242 3.31241 19.6191 3.15192C21.2181 2.28102 22.7275 1.98078 23.9844 2.28374C24.9168 2.50856 25.4033 2.99214 25.4033 2.99214C25.6866 3.29176 26.1689 3.28499 26.443 2.97236C27.2415 2.06129 28.2355 1.40624 29.4378 1.40624C31.3909 1.40624 33.0241 3.09822 33.0395 3.1144C33.2645 3.35319 33.6247 3.40426 33.9074 3.23815C33.9473 3.21459 37.8993 0.930928 39.899 3.19657C42.1568 6.54881 40.5707 9.704 40.5029 9.83486C40.3668 10.0934 40.4048 10.4092 40.5983 10.6282C41.2134 11.3239 41.6662 12.0845 41.9441 12.8891C42.0708 13.2563 42.4712 13.4509 42.8382 13.3241C43.2052 13.1974 43.4 12.797 43.2732 12.43C42.9815 11.5855 42.5357 10.7853 41.9455 10.046C42.4015 8.8961 43.3068 5.7019 41.0384 2.37119C41.0236 2.34931 41.0074 2.32839 40.9903 2.30826C39.1651 0.187461 36.1661 0.557657 33.667 1.77732C31.232 -0.337949 28.2488 -0.753584 25.8442 1.56348C24.876 0.93418 22.7145 0.063887 19.4289 1.6678C17.6459 0.00394568 14.6734 -0.304463 12.4656 1.49237C10.6406 0.843037 9.03421 0.888828 7.68571 1.62975C5.68242 2.73049 4.90986 5.03375 4.67888 5.92338C1.44301 7.6078 1.15025 10.9047 2.77904 14.1049C2.64184 14.2943 2.51519 14.4847 2.40067 14.674Z" fill="#51B1A6"/>
<path d="M42.9458 15.9755C42.5673 15.8899 42.1908 16.1283 42.1055 16.5072C41.7695 18.0015 41.3576 18.0981 41.5181 18.5988C43.0708 23.4424 39.065 26.1181 38.8953 26.2287C38.6651 26.3768 38.5419 26.6449 38.5793 26.916C38.8558 28.9216 38.5125 30.5132 37.559 31.6463C36.0459 33.4443 33.4438 33.5548 33.4195 33.5557C33.1349 33.5641 32.8835 33.7434 32.7827 34.0097C32.1789 35.6051 31.2975 36.6029 30.163 36.9751C28.1576 37.6328 25.9085 36.198 25.8873 36.1843C25.3813 35.8534 24.7187 36.2761 24.8067 36.8751C24.8126 36.9152 25.3536 40.8076 23.0799 43.5936H22.2427C20.1753 38.8296 18.3587 30.7474 23.4551 29.9982C24.7364 29.8101 26.1895 30.2308 27.7834 31.2482C28.1798 31.5012 28.4105 31.7482 28.8184 31.6174C29.9239 31.2612 28.7131 28.6388 32.9247 27.6834C33.3095 27.5961 33.5467 27.2093 33.4514 26.8276C32.7873 24.1643 33.2121 22.2698 35.7664 21.1518C36.0939 21.0071 36.2597 20.6398 36.1533 20.2992C35.7282 18.9375 35.6458 17.5203 36.0237 16.1212C36.4326 14.6068 36.9637 14.4759 36.8204 13.9289C36.6871 13.4195 36.2828 13.5192 35.5957 12.933C34.9009 12.3397 34.4624 11.4882 34.2902 10.3881C34.1034 9.19524 34.3081 8.1511 34.31 8.14213C34.3974 7.71639 34.0811 7.3164 33.6511 7.29821C33.1452 7.27667 33.1592 7.64168 32.1829 8.16085C30.1673 9.23294 27.4317 8.80368 25.3408 7.99492C24.8847 7.81843 24.5782 7.61013 24.1988 7.90281C22.8515 8.94115 21.508 9.2137 20.3879 9.17186C20.3777 9.1701 18.8203 9.13662 17.5993 8.38313C16.9606 7.98288 16.5563 8.8602 14.6003 8.76115C13.355 8.69813 12.096 8.13756 11.3642 7.50229C10.856 7.06231 10.0931 7.5196 10.2139 8.1634C10.3649 8.9691 10.3091 9.78094 9.88554 10.4827C9.41242 11.2666 8.69172 11.5545 8.67906 11.5695C8.2752 11.7348 8.11832 12.2246 8.34974 12.5937C9.4075 14.2808 9.6339 15.7151 9.54733 16.8033C9.54531 16.8133 9.43791 18.2239 8.7637 19.0854C8.44026 19.4871 8.64593 20.0905 9.14822 20.2103C12.8959 21.1043 13.3535 26.3882 12.0607 27.8802C11.4318 28.6053 11.6422 29.9369 11.7687 30.9647C11.8899 31.95 12.056 33.2995 11.6433 33.6828C11.1803 34.113 10.5887 33.7675 10.4184 33.6516C9.77005 33.2097 10.0591 31.5992 10.2505 30.5335C10.4316 29.5248 10.5511 28.8584 10.1101 28.4413C9.89362 28.2365 9.59163 28.1612 9.28164 28.2349C5.1659 29.2132 4.12237 23.8735 5.45725 22.787C5.83017 22.4834 5.79475 21.9022 5.38729 21.6462C5.37622 21.6392 4.26722 20.9343 3.52973 19.7282C3.32705 19.3969 2.89428 19.2927 2.56302 19.4952C2.23167 19.6978 2.12734 20.1306 2.32993 20.4619C2.85253 21.3165 3.51988 21.9625 4.0031 22.3636C2.51863 24.8658 4.36891 30.29 8.96312 29.7197C8.74217 31.1502 8.0408 33.7329 9.62626 34.8135C10.6303 35.498 11.7979 35.4585 12.6003 34.7131C13.8012 33.5976 13.1401 31.2739 13.0482 29.6324C14.8214 31.0394 16.9963 31.8306 19.2525 31.8949C17.4894 36.7928 20.9913 44.2598 21.1526 44.5987C21.2691 44.8437 21.5162 44.9998 21.7875 44.9998H23.4036C23.6035 44.9998 23.794 44.9147 23.9274 44.7658C25.9559 42.501 26.2798 39.6 26.2763 37.9551C29.533 39.3173 32.4376 38.3998 33.9313 34.9209C34.8956 34.8024 37.1211 34.3415 38.6257 32.5628C39.7816 31.1962 40.2509 29.3749 40.0231 27.1446C42.5819 25.1403 43.9521 21.9524 42.9405 18.4427C43.0841 18.125 43.3117 17.5538 43.4777 16.8156C43.5628 16.4368 43.3247 16.0606 42.9458 15.9755ZM28.2095 29.8575C27.7986 29.6119 27.3936 29.4027 26.9942 29.226C27.3098 28.5199 27.3074 27.7417 27.0779 27.0119C28.1252 26.449 29.1696 25.7925 29.9963 24.8406C31.1381 23.5259 31.5779 21.8322 31.1441 20.4205C30.6937 18.955 29.0979 17.1325 26.7743 16.343C26.6211 16.2911 26.6144 16.0807 26.7597 16.008C28.0768 15.3488 31.8992 13.4351 31.3104 9.99161C31.8183 9.86637 32.321 9.68365 32.8057 9.42797C32.8214 10.9336 33.2141 12.4315 34.2289 13.5601C33.6965 14.322 32.659 14.8253 31.821 15.1252C30.6336 15.5503 30.2776 17.0555 31.1465 17.974C31.8805 18.7498 32.7303 20.0225 32.7135 21.741C31.6992 23.1181 31.6219 24.8154 31.9379 26.489C29.3339 27.2717 28.582 28.7508 28.2095 29.8575ZM19.2686 18.1799C18.0968 18.1342 17.0253 18.4306 16.2177 19.0327C15.7517 19.3801 15.3828 19.9457 15.1543 20.5833C14.266 19.6224 13.1002 19.4551 12.1007 20.2917C11.5975 19.7959 11.0144 19.4038 10.3609 19.1306C10.5061 18.8268 10.6561 18.4454 10.7716 17.9952C14.1498 19.4538 16.6975 18.1552 16.8283 13.7991C16.8957 11.553 19.8231 10.7037 20.3409 10.5711C21.9036 10.6292 23.3905 10.1859 24.719 9.26423C25.2082 9.46216 26.11 9.78683 27.2119 10.0018C26.0854 11.8148 23.4938 12.6841 21.3869 12.9712C18.7299 13.3333 18.1902 15.7406 19.2686 18.1799ZM34.9601 14.8683C34.2813 16.5561 34.2199 18.4019 34.6473 20.1331C34.4228 20.2528 34.2116 20.3797 34.0136 20.5139C33.7246 18.9572 32.9 17.7817 32.1679 17.0078C31.9986 16.8289 32.0588 16.5339 32.2948 16.4495C33.4356 16.041 34.3352 15.5051 34.9601 14.8683ZM17.8893 10.0657C16.4756 10.8712 15.4716 12.1266 15.4226 13.7568C15.3718 15.4509 14.9542 16.5217 14.1815 16.9397C13.2269 17.4561 11.7707 16.9402 10.9728 16.5422C11.0099 15.1199 10.5946 13.7434 9.90935 12.4773C10.5984 11.9835 11.1955 11.2284 11.4853 10.3289C11.9701 11.3799 12.3545 12.75 11.9993 14.0882C11.8806 14.5356 12.2191 14.9718 12.6794 14.9718C12.9905 14.9718 13.275 14.7638 13.3585 14.4489C13.8052 12.7656 13.3802 11.1145 12.8179 9.85275C14.2223 10.305 15.7159 10.2969 17.1787 9.75431C17.3535 9.84255 17.5946 9.95382 17.8893 10.0657ZM13.5264 28.2047C14.3672 26.6199 14.3697 23.789 13.0926 21.5825C13.1139 21.4718 13.1411 21.3609 13.1733 21.2506C13.6115 20.9444 14.2139 21.6209 14.3596 21.8476C14.6453 22.2921 14.9133 22.7285 15.0546 23.181C15.9447 26.0302 18.069 27.4229 21.1644 27.2527C21.5521 27.2314 21.8492 26.8998 21.8279 26.5121C21.8065 26.1243 21.475 25.8285 21.0873 25.8485C19.5489 25.9325 18.3687 25.5758 17.5388 24.7499C15.9552 23.1741 16.1092 20.8677 17.0583 20.16C17.6757 19.6997 18.5555 19.5035 19.5352 19.6073C20.8091 19.7426 21.2899 20.0768 25.3904 22.1492C25.737 22.3243 26.1598 22.1856 26.3352 21.8391C26.5105 21.4925 26.3715 21.0695 26.0251 20.8944C22.1682 18.9442 21.8539 18.756 21.0458 18.4967C20.177 17.2382 19.9956 15.8735 20.2807 15.191C20.4743 14.7273 20.8983 14.4569 21.5768 14.3645C23.2252 14.1398 25.5502 13.5577 27.2648 12.0603C27.994 11.4234 28.4588 10.7535 28.6937 10.1966C29.0927 10.2225 29.5033 10.2259 29.9186 10.1999C30.2157 11.8814 29.0206 13.304 26.1304 14.7505C24.882 15.3752 24.9757 17.2171 26.322 17.6747C28.2049 18.3143 29.4806 19.7943 29.7999 20.8336C30.1495 21.9709 29.5821 23.1728 28.9346 23.9184C28.2598 24.6955 27.3547 25.2652 26.433 25.7622C25.5662 24.5675 24.008 23.457 21.7716 22.4455C21.4178 22.2857 21.0012 22.4426 20.8412 22.7963C20.6811 23.1501 20.8382 23.5667 21.192 23.7267C22.8458 24.4748 25.5384 25.9667 25.8133 27.762C25.8839 28.2228 25.7645 28.5673 25.6591 28.758C23.1776 28.1255 21.0883 29.0317 19.9791 30.4853C15.9176 30.5995 13.6786 28.2926 13.5264 28.2047Z" fill="#51B1A6"/>
<path d="M2.85685 17.2783C2.68327 16.8617 2.17649 16.7205 1.8171 16.9628C1.3577 17.2657 1.41122 17.9771 1.93839 18.1958C2.51662 18.4371 3.09591 17.8523 2.85685 17.2783Z" fill="#51B1A6"/>
</g>
<defs>
<clipPath id="clip0_312:881">
<rect width="45" height="45" fill="white"/>
</clipPath>
</defs>
</svg>
