<svg width="45" height="45" viewBox="0 0 45 45" fill="none" xmlns="http://www.w3.org/2000/svg">
<path d="M43.361 21.682C42.8288 21.5777 42.2881 21.6868 41.8381 21.9891C41.4654 22.2396 41.1919 22.5979 41.0497 23.0159L38.7371 22.006C38.7419 21.8478 38.7442 21.6918 38.7442 21.5399C38.7442 20.1802 38.574 18.8301 38.2381 17.5222L39.2755 16.8186C39.933 17.3945 40.8886 17.5666 41.7252 17.2032C42.851 16.714 43.3902 15.4112 42.9527 14.2373L42.4644 12.9267C42.0217 11.7384 40.7481 11.1124 39.5653 11.5006C38.9667 11.6971 38.485 12.1165 38.209 12.6814C38.0519 13.0026 37.9728 13.3472 37.9726 13.6935L36.7957 13.8579C36.6345 13.5623 36.4584 13.2628 36.2703 12.9644C36.0757 12.6558 35.6677 12.5634 35.3593 12.7579C35.0506 12.9524 34.9581 13.3603 35.1527 13.6689C35.3747 14.021 35.5781 14.3739 35.7574 14.7179C35.9373 15.0628 36.3167 15.2584 36.7006 15.2048L38.8229 14.9086C39.0198 14.8811 39.1939 14.7664 39.2968 14.5962C39.3996 14.4261 39.4204 14.2186 39.3533 14.0314C39.2622 13.7775 39.2773 13.504 39.3958 13.2615C39.5139 13.0196 39.7205 12.8401 39.9774 12.7557C40.4756 12.5922 41.0357 12.8759 41.2265 13.3881L41.7148 14.6986C41.9038 15.2058 41.6723 15.7859 41.1987 15.9918C40.7453 16.1887 40.2114 16.0199 39.9563 15.5992C39.8625 15.4445 39.7092 15.335 39.5324 15.2964C39.3557 15.2578 39.1707 15.2936 39.0209 15.3952L37.2607 16.5891C36.9341 16.8105 36.7854 17.2153 36.8908 17.5965C37.2441 18.8758 37.4232 20.2027 37.4232 21.54C37.4232 21.7591 37.4177 21.988 37.4069 22.2206C37.3894 22.5995 37.6107 22.9558 37.9575 23.1072L41.2576 24.5483C41.4411 24.6286 41.6512 24.6211 41.8284 24.5282C42.0059 24.4353 42.1315 24.2669 42.17 24.0703L42.2747 23.5375C42.3111 23.3518 42.4178 23.1913 42.5749 23.0857C42.7319 22.9801 42.9207 22.942 43.1066 22.9785C43.4901 23.0537 43.7409 23.427 43.6657 23.8104L43.1245 26.5684C43.0868 26.7604 42.9752 26.9241 42.8102 27.0295C42.6453 27.1347 42.4493 27.1666 42.2583 27.1199C41.8972 27.0312 41.6652 26.6445 41.741 26.2577L41.7554 26.184C41.7944 25.9851 41.7398 25.7792 41.6075 25.6257C41.4751 25.4721 41.2781 25.3872 41.0771 25.3971L37.5074 25.56C37.1295 25.5771 36.7953 25.8306 36.6759 26.191C36.3452 27.1895 35.9063 28.1542 35.3712 29.0583C35.1719 29.3949 35.2068 29.8217 35.4581 30.1203L37.0373 31.9964C37.1546 32.1358 37.3243 32.2204 37.5061 32.2305C37.688 32.2404 37.866 32.175 37.9979 32.0495C38.3519 31.7129 38.89 31.6841 39.2775 31.9806C39.4873 32.141 39.6218 32.3735 39.6567 32.6353C39.6916 32.897 39.6223 33.1566 39.4619 33.3663L39.0043 33.9644C38.6755 34.3939 38.0615 34.5043 37.6356 34.2108C37.2735 33.9613 37.1187 33.4963 37.2591 33.08C37.3685 32.7558 37.2121 32.4018 36.8988 32.2643L34.6238 31.265C34.2621 31.1059 33.8398 31.1958 33.5728 31.4888C32.5584 32.6027 31.387 33.5517 30.0911 34.3095C29.7638 34.5006 29.5851 34.8798 29.6462 35.253L30.2286 38.8042C30.261 39.0018 30.3813 39.1741 30.5558 39.2726C30.7302 39.371 30.9397 39.3849 31.1258 39.3106L31.6297 39.1089C31.8114 39.0363 32.0096 39.041 32.1876 39.1224C32.3656 39.2036 32.499 39.3508 32.5634 39.5368C32.6851 39.8881 32.4864 40.2931 32.1204 40.4394L29.5469 41.4689C29.3652 41.5417 29.1671 41.5368 28.989 41.4556C28.8111 41.3744 28.6776 41.2272 28.6132 41.0413C28.4915 40.69 28.6901 40.285 29.0559 40.1386L29.1255 40.1108C29.3138 40.0355 29.457 39.8779 29.5141 39.6834C29.5711 39.4888 29.5357 39.2789 29.4178 39.1139L27.3417 36.2048C27.122 35.8968 26.7276 35.7539 26.3609 35.849C25.1504 36.1628 23.899 36.3219 22.6414 36.3219C21.6456 36.3219 20.6474 36.2214 19.6746 36.023C19.3032 35.9474 18.9173 36.1106 18.7136 36.4295L16.6355 39.6888C16.5278 39.8576 16.5026 40.0662 16.567 40.2559C16.6312 40.4456 16.7781 40.5958 16.9663 40.6645L17.0398 40.6913C17.2921 40.7833 17.4935 40.968 17.6069 41.2115C17.7202 41.4549 17.7319 41.728 17.64 41.9804C17.6135 42.0528 17.6 42.1294 17.6 42.2066C17.6 42.4564 17.5263 42.6457 17.3924 42.7393C17.2587 42.833 17.0558 42.8376 16.8209 42.7518L14.268 41.8209C13.7568 41.6346 13.4846 41.0645 13.6612 40.5502C13.7455 40.3051 13.9269 40.1057 14.1721 39.9887C14.4311 39.8652 14.7322 39.8498 14.9979 39.9467L15.0564 39.968C15.2467 40.0376 15.4586 40.0157 15.6308 39.9087C15.8032 39.8018 15.9168 39.6217 15.9391 39.4202L16.3621 35.6005C16.4038 35.2246 16.2055 34.8554 15.8687 34.6815C14.3244 33.884 12.9428 32.8291 11.7624 31.5466C11.5026 31.2641 11.0901 31.1719 10.7359 31.3173L7.62051 32.5949C7.44764 32.6658 7.3129 32.8065 7.24966 32.9823C7.18634 33.158 7.20052 33.3524 7.2885 33.5172C7.48621 33.8871 7.3704 34.3402 7.01919 34.5711C6.65715 34.8093 6.15023 34.6979 5.88955 34.3227L5.09158 33.1741C4.83566 32.8057 4.8966 32.3112 5.23028 32.0482C5.40281 31.9122 5.6169 31.8527 5.83266 31.8805C6.0501 31.9085 6.24244 32.02 6.37445 32.1945C6.49387 32.3525 6.67793 32.4486 6.87591 32.4562C7.07318 32.4638 7.26472 32.3823 7.39594 32.2339L9.59022 29.7537C9.84773 29.4627 9.89388 29.0382 9.70498 28.697C9.46904 28.2715 9.24958 27.8234 9.05284 27.3651C8.90876 27.03 8.52047 26.8749 8.1852 27.0189C7.85002 27.1629 7.69502 27.5513 7.83892 27.8864C8.01532 28.2969 8.20845 28.7003 8.4147 29.0887L6.84306 30.8653C6.5903 30.7103 6.30514 30.6092 6.0014 30.5701C5.43011 30.4967 4.8663 30.6532 4.41267 31.0105C3.5312 31.7052 3.35296 32.9866 4.00686 33.9277L4.80483 35.0762C5.47071 36.0348 6.7896 36.3031 7.74522 35.6747C8.45988 35.2046 8.80431 34.3848 8.6841 33.5862L10.9809 32.6443C12.1605 33.8828 13.5167 34.9181 15.0191 35.7266L14.7049 38.5639C14.3278 38.5531 13.9484 38.6315 13.6034 38.7961C13.0355 39.067 12.6123 39.5374 12.4119 40.1208C12.0031 41.3112 12.6328 42.6305 13.8155 43.0618L16.3684 43.9927C16.6246 44.0861 16.882 44.1323 17.1299 44.1323C17.5033 44.1323 17.8553 44.0275 18.1499 43.8214C18.6121 43.4979 18.8884 42.956 18.9184 42.3221C19.0897 41.7698 19.0504 41.1816 18.8045 40.6536C18.647 40.3151 18.4158 40.0257 18.1297 39.8024L19.6807 37.3698C21.9079 37.7841 24.2303 37.7232 26.4251 37.1943L27.9323 39.306C27.3391 39.8429 27.0927 40.6877 27.3649 41.4736C27.5488 42.004 27.9306 42.4243 28.4402 42.6571C28.9427 42.8865 29.5247 42.9004 30.0375 42.6954L32.6111 41.6659C33.6393 41.2545 34.1668 40.1293 33.8117 39.1043C33.6279 38.5738 33.246 38.1535 32.7365 37.9207C32.3184 37.7298 31.845 37.688 31.4023 37.7977L30.9942 35.309C32.2304 34.5575 33.3587 33.6443 34.3539 32.5893L35.8909 33.2643C35.8479 34.0539 36.214 34.8355 36.886 35.2986C37.8997 35.9971 39.291 35.7635 40.0534 34.7672L40.511 34.1691C40.8859 33.6792 41.0476 33.0726 40.9663 32.4611C40.8849 31.8495 40.5703 31.3063 40.0803 30.9314C39.3655 30.3844 38.4323 30.3107 37.6639 30.6893L36.6504 29.4853C37.1242 28.6513 37.5236 27.7728 37.8411 26.8671L40.4318 26.7489C40.5603 27.5386 41.1357 28.2044 41.9435 28.4027C42.4886 28.5366 43.049 28.4442 43.5211 28.1428C43.9866 27.8456 44.3146 27.3645 44.4209 26.8226L44.962 24.0646C45.1775 22.9663 44.4593 21.8975 43.361 21.682Z" fill="#51B1A6"/>
<path d="M4.25558 23.4661L6.73132 24.0379C6.78522 24.3821 6.85189 24.7317 6.93027 25.0803C6.99922 25.3875 7.27188 25.5963 7.57413 25.5962C7.62203 25.5962 7.67073 25.5909 7.71944 25.58C8.07532 25.5001 8.29909 25.1468 8.21913 24.7909C8.12816 24.3854 8.05427 23.9793 7.99967 23.5839C7.94762 23.2076 7.66457 22.8974 7.29548 22.8123L3.78909 22.0025C3.5942 21.9575 3.38882 22.0034 3.23162 22.1273C3.07433 22.2513 2.98178 22.4399 2.98001 22.6402L2.9764 23.0506C2.97227 23.5102 2.59507 23.8841 2.13545 23.8841C1.9166 23.8841 1.71114 23.7985 1.55711 23.6431C1.403 23.4875 1.31924 23.2815 1.32118 23.0626L1.34408 20.5154C1.34611 20.2818 1.44536 20.0533 1.6163 19.8884C1.77693 19.7334 1.97992 19.6503 2.19437 19.6566C2.64052 19.6684 3.00159 20.0415 2.99913 20.4882C2.99798 20.6905 3.08966 20.8823 3.24792 21.0084C3.40617 21.1346 3.61366 21.1812 3.8104 21.1349L7.29213 20.3185C7.66096 20.2321 7.94277 19.9211 7.99359 19.5447C8.25048 17.6395 8.86862 15.8284 9.83076 14.1615C10.0249 13.8249 9.98664 13.4002 9.7352 13.1047L8.07487 11.1547C7.94506 11.0024 7.75422 10.9168 7.5529 10.9227C7.35272 10.9285 7.16593 11.0247 7.04511 11.1844L6.9012 11.3746C6.79367 11.5168 6.63691 11.6061 6.45972 11.6265C6.28315 11.6467 6.10957 11.5948 5.97192 11.4801C5.71177 11.2634 5.67672 10.8535 5.8938 10.5665L6.99975 9.10425C7.21446 8.82041 7.6201 8.76404 7.90394 8.97884C8.16972 9.17981 8.2378 9.55735 8.05902 9.83838C7.95528 10.0016 7.92824 10.2019 7.98505 10.3868C8.04185 10.5716 8.17677 10.7223 8.35414 10.799L10.6758 11.8032C11.0358 11.9589 11.4559 11.8686 11.7214 11.578C12.7784 10.4201 14.0036 9.44225 15.3633 8.67149C15.6927 8.48461 15.8763 8.10803 15.8203 7.7341L15.2855 4.17548C15.2557 3.97742 15.1376 3.80358 14.9645 3.70283C14.7913 3.60199 14.5817 3.58526 14.3951 3.65712L13.8885 3.85201C13.7058 3.92211 13.5078 3.9148 13.3309 3.83114C13.1541 3.74756 13.0227 3.59864 12.9608 3.41185C12.8437 3.05888 13.0478 2.65668 13.4158 2.51515L16.0029 1.52008C16.1855 1.4498 16.3835 1.45729 16.5604 1.54095C16.7372 1.62453 16.8687 1.77345 16.9306 1.96024C17.0476 2.31321 16.8435 2.71542 16.4755 2.85703L16.4056 2.88398C16.2164 2.95681 16.0711 3.11242 16.0115 3.30617C15.952 3.49992 15.9845 3.71031 16.1002 3.87685L18.1368 6.81283C18.3522 7.12335 18.7442 7.27157 19.1122 7.18148C20.2601 6.90037 21.4474 6.75779 22.6427 6.75779H22.643C23.0327 6.75779 23.3821 6.51217 23.5123 6.14695L24.1867 4.26003C24.2472 4.09076 24.2361 3.90406 24.1558 3.74325C24.0757 3.58235 23.9335 3.46099 23.7618 3.40736C23.2708 3.25377 22.9584 2.77152 23.019 2.26073C23.0513 1.98895 23.1941 1.74157 23.4209 1.56412C23.6591 1.37777 23.9639 1.29208 24.2577 1.32915L25.1838 1.44575C25.784 1.52132 26.2213 2.05227 26.1585 2.62929C26.11 3.07473 25.7981 3.43598 25.364 3.54959C25.0461 3.63281 24.8377 3.93717 24.8751 4.26373L25.1094 6.30847C25.1541 6.69869 25.4424 7.01767 25.8272 7.10231C27.3025 7.42639 28.7162 7.97567 30.0287 8.73463C30.3574 8.92486 30.7758 8.89209 31.0698 8.65343L33.8641 6.38526C34.0196 6.25906 34.1094 6.0691 34.1083 5.86884C34.1072 5.66866 34.0153 5.47967 33.8586 5.35514L33.4335 5.01758C33.2802 4.89596 33.186 4.72159 33.1682 4.52652C33.1505 4.3318 33.212 4.14299 33.3415 3.99477C33.5861 3.71463 34.0362 3.68627 34.3451 3.93136L36.516 5.65492C36.6692 5.77654 36.7635 5.95092 36.7812 6.1459C36.7989 6.34061 36.7375 6.52943 36.6079 6.67773C36.3633 6.9577 35.9129 6.98606 35.6045 6.74123L35.5459 6.69473C35.387 6.56853 35.179 6.52238 34.982 6.56941C34.7848 6.61644 34.6201 6.75145 34.5353 6.93559L33.0386 10.1846C32.8803 10.5282 32.9521 10.9414 33.2169 11.2128C33.3108 11.3089 33.4035 11.4084 33.5139 11.5283C33.7609 11.7967 34.1788 11.814 34.4472 11.5669C34.7155 11.3198 34.7328 10.902 34.4858 10.6335C34.4391 10.5827 34.3951 10.5352 34.3525 10.4896L35.4395 8.12996C36.2 8.37866 37.0557 8.17338 37.6028 7.54696C37.9722 7.12415 38.1476 6.58403 38.0967 6.02612C38.0466 5.47606 37.7698 4.96377 37.3373 4.62049L35.1664 2.89701C34.2991 2.20842 33.0605 2.30872 32.3466 3.1259C31.9773 3.54871 31.8018 4.08882 31.8527 4.64673C31.8945 5.1045 32.0931 5.53621 32.408 5.86602L30.4506 7.45519C29.1719 6.74458 27.8083 6.21432 26.39 5.87606L26.2449 4.60904C26.9162 4.23775 27.3871 3.55399 27.4723 2.7724C27.6126 1.48327 26.6601 0.300264 25.3492 0.135138L24.4231 0.0185376C23.7832 -0.0619558 23.1212 0.122105 22.6077 0.523603C22.1015 0.919464 21.7818 1.48107 21.7078 2.10502C21.6 3.01212 22.0185 3.87887 22.7453 4.36905L22.3628 5.43916C21.2498 5.45818 20.1436 5.59107 19.0666 5.83511L17.5885 3.70424C18.1887 3.17548 18.4465 2.334 18.1848 1.54456C18.0081 1.01167 17.6318 0.586306 17.1254 0.346764C16.6261 0.110656 16.0443 0.0889033 15.5289 0.287142L12.9419 1.28212C11.9081 1.67966 11.3657 2.79776 11.7071 3.82753C11.8838 4.36042 12.2599 4.78579 12.7664 5.02533C13.1819 5.22181 13.6544 5.26998 14.0988 5.16615L14.4736 7.66003C13.1694 8.42895 11.9829 9.37532 10.9404 10.4781L9.44916 9.83318C9.57034 9.12715 9.30059 8.37866 8.70103 7.92512C8.2821 7.60825 7.76506 7.47324 7.24458 7.54572C6.72428 7.61785 6.26325 7.88839 5.94647 8.30733L4.84043 9.7696C4.19323 10.6251 4.3189 11.8223 5.12647 12.495C5.54435 12.8431 6.07126 13.0009 6.61058 12.9389C6.95061 12.8999 7.27364 12.7714 7.54682 12.5721L8.54736 13.7473C7.62283 15.415 7.01014 17.2116 6.72357 19.095L4.16778 19.6943C3.85752 18.92 3.10683 18.3592 2.22933 18.3361C1.65804 18.3217 1.11669 18.5347 0.6989 18.9378C0.274769 19.3472 0.0283566 19.9177 0.0229845 20.5034L8.70919e-05 23.0508C-0.0050208 23.6248 0.214707 24.1654 0.618671 24.5731C1.02263 24.9807 1.56134 25.2052 2.13536 25.2052C3.17896 25.2053 4.05743 24.4554 4.25558 23.4661Z" fill="#51B1A6"/>
<path d="M19.3713 19.8603C19.6935 19.6896 19.8163 19.2898 19.6455 18.9674C19.4747 18.6453 19.0751 18.5222 18.7525 18.6932C17.1741 19.5298 15.3749 19.3087 14.4752 18.167C13.9703 17.5266 13.7966 16.6779 13.9861 15.7774C14.1848 14.8331 14.753 13.9515 15.586 13.2949C16.4189 12.6383 17.4089 12.2922 18.3734 12.319C19.2932 12.345 20.0778 12.712 20.5828 13.3525C21.3409 14.3143 21.3313 15.7499 20.5582 17.0099C20.3675 17.3208 20.4648 17.7275 20.7758 17.9183C21.0867 18.109 21.4934 18.0116 21.6842 17.7008C22.75 15.9637 22.7248 13.936 21.6201 12.5347C20.8687 11.5813 19.7288 11.0357 18.4107 10.9986C17.1369 10.9616 15.8437 11.4097 14.7682 12.2575C13.6926 13.1053 12.9558 14.2588 12.6934 15.5053C12.4218 16.7957 12.6862 18.0314 13.4376 18.9848C14.2289 19.9886 15.4679 20.5166 16.8009 20.5165C17.6502 20.5165 18.5374 20.3023 19.3713 19.8603Z" fill="#51B1A6"/>
<path d="M32.1873 13.937C32.1873 12.5677 30.913 11.4536 29.3466 11.4536C27.7803 11.4536 26.5059 12.5677 26.5059 13.937C26.5059 15.3064 27.7803 16.4204 29.3466 16.4204C30.913 16.4204 32.1873 15.3064 32.1873 13.937ZM27.827 13.937C27.827 13.2961 28.5087 12.7746 29.3467 12.7746C30.1847 12.7746 30.8664 13.2961 30.8664 13.937C30.8664 14.578 30.1847 15.0994 29.3467 15.0994C28.5087 15.0994 27.827 14.578 27.827 13.937Z" fill="#51B1A6"/>
<path d="M24.5227 25.2889C24.5227 23.6107 23.1574 22.2454 21.4791 22.2454C19.8009 22.2454 18.4355 23.6107 18.4355 25.2889C18.4355 26.9671 19.8009 28.3324 21.4791 28.3324C23.1574 28.3324 24.5227 26.9671 24.5227 25.2889ZM19.7566 25.2889C19.7566 24.3391 20.5293 23.5664 21.4792 23.5664C22.4289 23.5664 23.2017 24.3391 23.2017 25.2889C23.2017 26.2387 22.429 27.0114 21.4792 27.0114C20.5293 27.0114 19.7566 26.2387 19.7566 25.2889Z" fill="#51B1A6"/>
<path d="M33.1334 24.0476C33.1334 22.7425 32.0717 21.6808 30.7666 21.6808C29.4616 21.6808 28.3999 22.7425 28.3999 24.0476C28.3999 25.3527 29.4616 26.4144 30.7666 26.4144C32.0717 26.4143 33.1334 25.3527 33.1334 24.0476ZM29.7208 24.0476C29.7208 23.4709 30.19 23.0018 30.7665 23.0018C31.3432 23.0018 31.8123 23.4709 31.8123 24.0476C31.8123 24.6243 31.3432 25.0934 30.7665 25.0934C30.19 25.0933 29.7208 24.6243 29.7208 24.0476Z" fill="#51B1A6"/>
<path d="M24.4654 34.6934C25.7442 34.6934 26.7848 33.6529 26.7848 32.374C26.7848 31.0952 25.7443 30.0547 24.4654 30.0547C23.1865 30.0547 22.146 31.0951 22.146 32.374C22.146 33.6529 23.1864 34.6934 24.4654 34.6934ZM24.4654 31.3757C25.0159 31.3757 25.4638 31.8235 25.4638 32.374C25.4638 32.9245 25.0159 33.3724 24.4654 33.3724C23.9149 33.3724 23.467 32.9245 23.467 32.374C23.467 31.8235 23.9149 31.3757 24.4654 31.3757Z" fill="#51B1A6"/>
<path d="M14.0853 30.7946C15.4024 30.7946 16.4739 29.7231 16.4739 28.406C16.4739 27.089 15.4024 26.0175 14.0853 26.0175C12.7683 26.0175 11.6968 27.089 11.6968 28.406C11.6968 29.7231 12.7683 30.7946 14.0853 30.7946ZM14.0853 27.3385C14.6741 27.3385 15.1529 27.8174 15.1529 28.406C15.1529 28.9947 14.674 29.4736 14.0853 29.4736C13.4967 29.4736 13.0178 28.9947 13.0178 28.406C13.0178 27.8174 13.4967 27.3385 14.0853 27.3385Z" fill="#51B1A6"/>
<path d="M27.5353 20.1398C27.5353 19.775 27.2396 19.4792 26.8748 19.4792H26.2909C25.926 19.4792 25.6304 19.775 25.6304 20.1398C25.6304 20.5045 25.926 20.8003 26.2909 20.8003H26.8748C27.2396 20.8003 27.5353 20.5045 27.5353 20.1398Z" fill="#51B1A6"/>
<path d="M18.4964 32.3459H19.0964C19.4612 32.3459 19.7569 32.0502 19.7569 31.6854C19.7569 31.3206 19.4612 31.0249 19.0964 31.0249H18.4964C18.1316 31.0249 17.8359 31.3206 17.8359 31.6854C17.8359 32.0502 18.1317 32.3459 18.4964 32.3459Z" fill="#51B1A6"/>
<path d="M12.9352 22.727C13.3 22.727 13.5957 22.4313 13.5957 22.0665C13.5957 21.7017 13.3 21.406 12.9352 21.406H12.3573C11.9924 21.406 11.6968 21.7017 11.6968 22.0665C11.6968 22.4313 11.9924 22.727 12.3573 22.727H12.9352Z" fill="#51B1A6"/>
<path d="M24.6664 11.1711C25.0313 11.1711 25.3269 10.8754 25.3269 10.5106C25.3269 10.1458 25.0313 9.8501 24.6664 9.8501H23.8622C23.4973 9.8501 23.2017 10.1458 23.2017 10.5106C23.2017 10.8754 23.4973 11.1711 23.8622 11.1711H24.6664Z" fill="#51B1A6"/>
<path d="M29.0599 28.8748C28.6951 28.8748 28.3994 29.1705 28.3994 29.5353C28.3994 29.9 28.6951 30.1958 29.0599 30.1958H29.948C30.3128 30.1958 30.6085 29.9 30.6085 29.5353C30.6085 29.1705 30.3128 28.8748 29.948 28.8748H29.0599Z" fill="#51B1A6"/>
</svg>
