<svg width="45" height="45" viewBox="0 0 45 45" fill="none" xmlns="http://www.w3.org/2000/svg">
<g clip-path="url(#clip0_312:888)">
<path d="M40.1632 20.1441C38.2126 20.1441 36.5896 21.5997 36.2805 23.5021H28.0292C27.8102 20.992 26.355 18.8396 24.2894 17.6865L25.3196 15.2634C25.6249 15.3412 25.944 15.3831 26.2726 15.3831C27.7515 15.3831 29.0921 14.5491 29.7715 13.2065C29.9352 12.8831 29.8109 12.4854 29.4939 12.3184C29.1769 12.1514 28.7872 12.2781 28.6235 12.6017C28.1669 13.5041 27.266 14.0648 26.2726 14.0648C24.8142 14.0648 23.6279 12.8541 23.6279 11.366C23.6279 9.87793 24.8142 8.66733 26.2726 8.66733C27.266 8.66733 28.1669 9.2279 28.6235 10.1304C28.7872 10.454 29.177 10.5805 29.4939 10.4136C29.8109 10.2466 29.9352 9.84893 29.7715 9.52549C29.0921 8.18297 27.7515 7.34898 26.2726 7.34898C24.1019 7.34898 22.3359 9.15099 22.3359 11.366C22.3359 12.7773 23.0534 14.0201 24.1352 14.7368L23.1042 17.1616C22.3891 16.9193 21.6258 16.7861 20.8321 16.7861C19.3496 16.7861 17.9702 17.2445 16.822 18.029L10.6741 10.2388C11.5557 9.30331 12.0995 8.03391 12.0995 6.63654C12.0995 3.76824 9.81264 1.43475 7.00171 1.43475C4.19078 1.43475 1.90396 3.76833 1.90396 6.63663C1.90396 9.50484 4.19086 11.8384 7.00179 11.8384C7.97905 11.8384 8.89249 11.5558 9.66897 11.0674L15.8173 18.8579C14.4547 20.2 13.6046 22.0807 13.6046 24.1612C13.6046 25.7232 14.097 27.2547 14.9963 28.5106L10.0297 32.9585C8.96372 31.9599 7.54348 31.3492 5.98586 31.3492C2.68527 31.3492 0 34.0892 0 37.4572C0 40.8252 2.68527 43.5652 5.98586 43.5652C9.28637 43.5652 11.9716 40.8252 11.9716 37.4572C11.9716 36.1525 11.5673 34.943 10.8817 33.9496L15.8501 29.5001C16.7779 30.3993 17.9308 31.0416 19.1773 31.3398C19.5248 31.4227 19.8721 31.2029 19.9537 30.8485C20.0351 30.494 19.8195 30.1394 19.4722 30.0562C16.8083 29.419 14.8966 27.0133 14.8966 24.1612C14.8966 20.8216 17.5592 18.1046 20.8321 18.1046C24.1049 18.1046 26.7676 20.8217 26.7676 24.1612C26.7676 27.0414 24.8254 29.4262 22.1919 30.0562C21.8447 30.1394 21.6291 30.494 21.7105 30.8485C21.7919 31.2031 22.1397 31.4228 22.4869 31.3398C23.3279 31.1386 24.1257 30.7799 24.8413 30.2925L27.9316 34.2082C27.5843 34.672 27.3774 35.2509 27.3774 35.8783C27.3774 37.3985 28.5893 38.6353 30.0791 38.6353C31.5688 38.6353 32.7808 37.3986 32.7808 35.8783C32.7808 34.3582 31.5688 33.1215 30.0791 33.1215C29.6712 33.1215 29.2844 33.2147 28.9373 33.3806L25.8489 29.4672C27.137 28.2024 27.8778 26.5342 28.0297 24.8205H36.2805C36.5897 26.7229 38.2126 28.1784 40.1632 28.1784C42.3339 28.1784 44.1 26.3764 44.1 24.1613C44.1 21.9461 42.3339 20.1441 40.1632 20.1441ZM7.00179 10.5201C4.90326 10.5201 3.19595 8.77799 3.19595 6.63663C3.19595 4.49527 4.90318 2.7532 7.00179 2.7532C9.10024 2.7532 10.8076 4.49527 10.8076 6.63663C10.8076 8.77799 9.10024 10.5201 7.00179 10.5201ZM5.98586 42.2469C3.39767 42.2469 1.29199 40.0982 1.29199 37.4572C1.29199 34.8162 3.39767 32.6675 5.98586 32.6675C8.57406 32.6675 10.6797 34.8162 10.6797 37.4572C10.6797 40.0982 8.57406 42.2469 5.98586 42.2469ZM30.0792 34.4398C30.8564 34.4398 31.4889 35.085 31.4889 35.8783C31.4889 36.6715 30.8564 37.3168 30.0792 37.3168C29.3019 37.3168 28.6695 36.6716 28.6695 35.8783C28.6695 35.085 29.3018 34.4398 30.0792 34.4398ZM40.1632 26.8599C38.7049 26.8599 37.5185 25.6493 37.5185 24.1612C37.5185 22.673 38.7049 21.4624 40.1632 21.4624C41.6216 21.4624 42.808 22.6731 42.808 24.1612C42.808 25.6492 41.6216 26.8599 40.1632 26.8599Z" fill="#51B1A6"/>
</g>
<defs>
<clipPath id="clip0_312:888">
<rect width="44.1" height="45" fill="white"/>
</clipPath>
</defs>
</svg>
