<svg width="13" height="15" viewBox="0 0 13 15" fill="none" xmlns="http://www.w3.org/2000/svg">
<path d="M10.9797 2.90587L10.9795 2.90556C10.2225 1.62669 9.19305 0.9 8.07143 0.9L4.92857 0.9C3.80695 0.9 2.7775 1.62669 2.02049 2.90556C1.26282 4.18556 0.9 5.77724 0.9 7.5C0.9 9.22342 1.29583 10.8602 2.02031 12.0941C2.74438 13.3273 3.80652 14.1 4.92857 14.1H8.07143C9.19305 14.1 10.2225 13.3733 10.9795 12.0944C11.7372 10.8144 12.1 9.22276 12.1 7.5C12.1 5.77658 11.7042 4.13975 10.9797 2.90587ZM7.83895 2.90966L7.83903 2.90961L7.83681 2.90584C7.52584 2.37661 7.16707 1.94614 6.77887 1.62L8.07143 1.62C8.82642 1.62 9.56449 2.08796 10.166 2.98H7.87624L7.83895 2.90966ZM2.6511 11.7328L2.65103 11.7327C1.98758 10.6073 1.62381 9.10477 1.62381 7.5C1.62381 5.89523 1.98758 4.39269 2.65103 3.26728C3.31575 2.13971 4.0938 1.62 4.92857 1.62C5.76263 1.62 6.57358 2.19083 7.20605 3.26716C7.83705 4.34102 8.23333 5.89578 8.23333 7.5C8.23333 9.10477 7.86956 10.6073 7.20612 11.7327C6.54139 12.8603 5.76335 13.38 4.92857 13.38C4.09451 13.38 3.28356 12.8092 2.6511 11.7328ZM7.87624 12.02L10.166 12.02C9.56449 12.912 8.82642 13.38 8.07143 13.38H6.77888C7.16707 13.0539 7.52584 12.6234 7.83681 12.0942L7.8369 12.0942L7.83895 12.0903L7.87624 12.02ZM10.5822 3.7C11.0496 4.6698 11.3233 5.86311 11.3667 7.14H8.9482C8.91223 5.89061 8.65944 4.70501 8.23098 3.7H10.5822ZM11.3667 7.86C11.3233 9.13689 11.0496 10.3302 10.5822 11.3L8.23098 11.3C8.65944 10.295 8.91223 9.10939 8.9482 7.86H11.3667Z" fill="#5A5A75" stroke="#5A5A75" stroke-width="0.2"/>
</svg>
