<svg width="45" height="45" viewBox="0 0 45 45" fill="none" xmlns="http://www.w3.org/2000/svg">
<path d="M22.7143 0C19.3434 0.00381504 16.1117 1.34457 13.7281 3.72813C11.3446 6.11169 10.0038 9.3434 10 12.7143V25.8311C9.99953 27.6168 10.3761 29.3825 11.1051 31.0127C11.8341 32.6428 12.8991 34.1007 14.2304 35.2909C14.2546 35.3159 14.2809 35.3387 14.3091 35.3591C16.1425 36.9798 18.4048 38.0366 20.8244 38.4024C23.2439 38.7683 25.7176 38.4276 27.9481 37.4214C30.1787 36.4151 32.0712 34.7861 33.3982 32.7302C34.7252 30.6742 35.4302 28.2788 35.4285 25.8318V12.7143C35.4247 9.3434 34.0839 6.11169 31.7004 3.72813C29.3168 1.34457 26.0851 0.00381504 22.7143 0ZM11.2305 25.8311V12.7143C11.2305 9.66857 12.4404 6.74762 14.594 4.59399C16.7476 2.44036 19.6686 1.23047 22.7143 1.23047C25.7599 1.23047 28.6809 2.44036 30.8345 4.59399C32.9881 6.74762 34.198 9.66857 34.198 12.7143V18.0039C32.5696 20.0281 30.8302 21.9606 28.9879 23.7923C27.0564 22.5049 24.9481 20.0422 23.8923 18.7274C25.7424 18.4262 27.4062 17.4262 28.5401 15.9337C29.6741 14.4411 30.1916 12.5702 29.9858 10.7071C29.7801 8.84402 28.8667 7.1311 27.4344 5.92203C26.002 4.71296 24.1601 4.10008 22.2889 4.20994C20.4177 4.31981 18.6602 5.14402 17.3792 6.5124C16.0982 7.88078 15.3916 9.68882 15.4052 11.5632C15.4189 13.4375 16.1518 15.2351 17.4526 16.5846C18.7534 17.9342 20.5228 18.7327 22.3954 18.8153C23.0809 19.7139 25.6252 22.938 28.0928 24.6702C24.5568 28.0846 19.835 31.9377 14.7732 34.1149C13.6531 33.0455 12.7617 31.76 12.1527 30.3361C11.5438 28.9123 11.2301 27.3797 11.2305 25.8311ZM22.7143 17.601C21.5113 17.601 20.3354 17.2443 19.3353 16.576C18.3351 15.9077 17.5555 14.9578 17.0952 13.8464C16.6349 12.7351 16.5144 11.5122 16.7491 10.3324C16.9838 9.1526 17.563 8.06889 18.4136 7.2183C19.2642 6.36771 20.3479 5.78846 21.5277 5.55378C22.7075 5.3191 23.9304 5.43955 25.0417 5.89988C26.1531 6.36022 27.103 7.13976 27.7713 8.13995C28.4396 9.14013 28.7963 10.316 28.7963 11.5189C28.7949 13.1316 28.1537 14.6778 27.0134 15.8181C25.8731 16.9583 24.3269 17.5996 22.7143 17.601ZM22.7143 37.3148C20.2237 37.3172 17.8006 36.5058 15.8138 35.004C24.2678 31.1639 31.51 23.1704 34.198 19.9571V25.8311C34.1948 28.8757 32.9838 31.7948 30.8309 33.9477C28.678 36.1006 25.7589 37.3116 22.7143 37.3148Z" fill="#51B1A6"/>
<path d="M21.0768 10.6717C21.2045 10.6717 21.3292 10.632 21.4333 10.558C21.5375 10.484 21.616 10.3794 21.658 10.2588C21.7001 10.1381 21.7035 10.0073 21.6678 9.88465C21.6321 9.76196 21.5591 9.65343 21.4589 9.57411C21.0708 9.22617 20.5678 9.03375 20.0465 9.03375C19.5252 9.03375 19.0223 9.22617 18.6341 9.57411C18.5083 9.67605 18.4278 9.82346 18.41 9.98438C18.3922 10.1453 18.4385 10.3068 18.5389 10.4337C18.6394 10.5607 18.7858 10.643 18.9465 10.6627C19.1072 10.6825 19.2692 10.6381 19.3974 10.5392C19.4819 10.4527 19.5829 10.384 19.6944 10.3371C19.8059 10.2902 19.9256 10.2661 20.0465 10.2661C20.1675 10.2661 20.2872 10.2902 20.3987 10.3371C20.5101 10.384 20.6111 10.4527 20.6957 10.5392C20.8041 10.6251 20.9384 10.6719 21.0768 10.6717Z" fill="#51B1A6"/>
<path d="M26.7946 9.57411C26.4065 9.22617 25.9035 9.03375 25.3822 9.03375C24.8609 9.03375 24.358 9.22617 23.9698 9.57411C23.9054 9.62385 23.8514 9.68589 23.8111 9.75662C23.7708 9.82736 23.745 9.90539 23.7351 9.98619C23.7251 10.067 23.7313 10.149 23.7533 10.2273C23.7753 10.3057 23.8126 10.379 23.8631 10.4428C23.9137 10.5067 23.9763 10.5599 24.0475 10.5993C24.1187 10.6388 24.1971 10.6637 24.278 10.6727C24.3589 10.6816 24.4408 10.6744 24.5189 10.6515C24.597 10.6286 24.6698 10.5904 24.7331 10.5392C24.8176 10.4527 24.9186 10.384 25.0301 10.3371C25.1416 10.2902 25.2613 10.2661 25.3822 10.2661C25.5032 10.2661 25.6229 10.2902 25.7344 10.3371C25.8458 10.384 25.9468 10.4527 26.0314 10.5392C26.1596 10.6381 26.3216 10.6825 26.4823 10.6627C26.643 10.643 26.7894 10.5607 26.8898 10.4337C26.9903 10.3068 27.0366 10.1453 27.0188 9.98438C27.0009 9.82346 26.9204 9.67605 26.7946 9.57411Z" fill="#51B1A6"/>
<path d="M24.0197 13.6606C23.0353 14.2885 22.2443 14.298 21.4508 13.6905C21.3211 13.5949 21.159 13.5541 20.9994 13.5767C20.8398 13.5994 20.6955 13.6838 20.5975 13.8117C20.4995 13.9397 20.4556 14.101 20.4753 14.2609C20.495 14.4209 20.5766 14.5667 20.7027 14.6671C21.2495 15.1132 21.9307 15.3619 22.6363 15.3731C23.3693 15.3494 24.0799 15.1146 24.6827 14.697C24.8177 14.608 24.9123 14.4694 24.9459 14.3112C24.9795 14.1531 24.9495 13.988 24.8624 13.8518C24.7752 13.7156 24.6379 13.6191 24.4802 13.5834C24.3225 13.5476 24.1571 13.5753 24.0197 13.6606Z" fill="#51B1A6"/>
</svg>
