<svg width="45" height="45" viewBox="0 0 45 45" fill="none" xmlns="http://www.w3.org/2000/svg">
<g clip-path="url(#clip0_312:822)">
<path d="M21.7151 19.5941C21.2939 20.0317 20.7683 20.2676 20.2329 20.2553C19.7244 20.2447 19.2483 20.0171 18.8919 19.6144C18.6507 19.3419 18.2341 19.3163 17.9616 19.5577C17.689 19.7989 17.6636 20.2154 17.9048 20.4881C18.5077 21.1694 19.3247 21.5548 20.2053 21.5732C20.2271 21.5737 20.2488 21.574 20.2705 21.574C21.1539 21.574 22.0018 21.1972 22.665 20.5084C22.9175 20.2461 22.9095 19.8289 22.6472 19.5764C22.3849 19.3239 21.9675 19.3319 21.7151 19.5941Z" fill="#51B1A6"/>
<path d="M33.834 41.0093H35.2266C36.1175 41.0093 36.8424 40.2845 36.8424 39.3935V37.818H38.4204C39.3113 37.818 40.0361 37.0932 40.0361 36.2022V34.807C40.0361 33.9161 39.3113 33.1912 38.4204 33.1912H36.8424V31.6157C36.8424 30.7248 36.1175 29.9999 35.2266 29.9999H33.834C32.943 29.9999 32.2182 30.7248 32.2182 31.6157V33.1912H30.6402C29.7492 33.1912 29.0244 33.9161 29.0244 34.807V36.2022C29.0244 37.0932 29.7492 37.818 30.6402 37.818H32.2182V39.3935C32.2182 40.2845 32.943 41.0093 33.834 41.0093ZM30.6402 36.4997C30.4789 36.4997 30.3427 36.3635 30.3427 36.2022V34.807C30.3427 34.6458 30.4789 34.5095 30.6402 34.5095H32.8774C33.2414 34.5095 33.5365 34.2144 33.5365 33.8503V31.6156C33.5365 31.4516 33.67 31.3181 33.8341 31.3181H35.2267C35.3907 31.3181 35.5242 31.4515 35.5242 31.6156V33.8503C35.5242 34.2144 35.8192 34.5095 36.1834 34.5095H38.4205C38.5818 34.5095 38.718 34.6458 38.718 34.807V36.2022C38.718 36.3635 38.5818 36.4997 38.4205 36.4997H36.1834C35.8193 36.4997 35.5242 36.7949 35.5242 37.1589V39.3935C35.5242 39.5576 35.3908 39.691 35.2267 39.691H33.8341C33.67 39.691 33.5365 39.5576 33.5365 39.3935V37.1589C33.5365 36.7949 33.2415 36.4997 32.8774 36.4997H30.6402Z" fill="#51B1A6"/>
<path d="M42.914 31.0527C42.7435 30.7312 42.3444 30.6089 42.0228 30.7795C41.7012 30.9501 41.5789 31.3491 41.7495 31.6707C43.8621 35.6517 42.3429 40.6097 38.363 42.7228C36.4352 43.7463 34.2243 43.9581 32.1374 43.319C31.2466 43.0462 30.4247 42.6312 29.6947 42.0964C29.6807 42.0857 29.6663 42.0754 29.6515 42.0659C28.6903 41.352 27.892 40.4274 27.3139 39.3386C26.2893 37.4099 26.0773 35.1982 26.7167 33.1107C27.356 31.0236 28.7699 29.3105 30.6978 28.2868C33.8171 26.6315 37.6254 27.1557 40.1749 29.5912C40.4575 29.8613 40.9177 29.8304 41.1596 29.5074C41.3621 29.237 41.3118 28.853 41.0669 28.6203C38.2115 25.9069 34.0069 25.2508 30.4692 26.9278C28.7407 26.3023 25.6164 25.4798 25.5949 25.4711C25.5948 25.4683 25.5948 23.9602 25.5947 23.2709C27.7373 21.6896 29.4329 19.3789 30.1046 17.0844C32.0419 16.8867 33.3548 15.6553 33.3548 13.9651V13.0184C33.3548 12.6286 33.2521 12.2627 33.0733 11.9458V8.12804C33.0733 4.21286 29.8994 1.03896 25.9842 1.03896H24.7579C23.4106 0.374238 21.8956 0 20.2945 0C18.6934 0 17.1783 0.374238 15.831 1.03887H14.6045C10.6894 1.03887 7.51561 4.21269 7.51561 8.12777V11.9458C7.33684 12.2627 7.2341 12.6285 7.2341 13.0184V13.965C7.2341 15.6553 8.54701 16.8866 10.4843 17.0844C11.156 19.3786 12.8514 21.689 14.9942 23.2705C14.9942 23.9597 14.9941 25.4683 14.994 25.471C14.9712 25.4803 14.9354 25.4928 14.8818 25.5064C13.2674 25.9204 11.5527 26.3778 9.88954 27.0131C9.55371 27.1413 9.36202 27.5146 9.4805 27.854C9.57603 28.1276 9.83162 28.2966 10.1031 28.2966C10.1815 28.2966 10.2612 28.2825 10.3387 28.2528C11.929 27.6436 13.594 27.1982 15.1648 26.795C15.7582 29.0733 17.833 30.7602 20.2945 30.7602C22.756 30.7602 24.8309 29.0733 25.4242 26.795C26.633 27.1062 27.8203 27.4223 28.9819 27.8037C27.3042 29.0072 26.0713 30.7165 25.4563 32.7244C24.7136 35.1486 24.9599 37.7172 26.1496 39.9567C26.5405 40.693 27.0185 41.3642 27.5696 41.9606H9.66348V38.2029C9.66348 37.8419 9.38531 37.5272 9.02452 37.5165C8.65125 37.5053 8.34521 37.8046 8.34521 38.1753V41.9606C8.34521 41.9606 2.53248 41.9589 2.48387 41.9562C2.38008 41.9504 2.3044 41.8542 2.32409 41.7522C2.32426 41.7513 2.32444 41.7505 2.32462 41.7496L3.72225 34.597C4.13059 32.5039 5.43111 30.8368 7.69755 29.5011C8.00675 29.3189 8.13594 28.9214 7.96456 28.606C7.7857 28.277 7.37165 28.1638 7.05146 28.3518C4.46335 29.8707 2.90795 31.8869 2.4285 34.3444L1.0306 41.4976C0.9907 41.7029 0.869235 42.3279 1.25226 42.7924C1.60778 43.2236 2.18953 43.2789 2.65667 43.2789H29.0793C29.8853 43.8428 30.7835 44.2831 31.7513 44.5794C32.6696 44.8607 33.6082 45 34.5422 45C36.073 45 37.5906 44.6254 38.9812 43.887C43.6029 41.4331 45.3671 35.6757 42.914 31.0527ZM32.0366 13.0184V13.965C32.0366 14.9384 31.2886 15.4984 30.3816 15.7036C30.4052 15.4767 30.4177 15.2516 30.4177 15.0289V12.1604L30.423 12.1582L31.196 12.1604C31.6517 12.1604 32.0366 12.5533 32.0366 13.0184ZM31.7551 8.12804V10.9165C31.5766 10.8683 31.3893 10.8421 31.196 10.8421H30.4177V10.1236C30.4177 7.04399 29.0351 4.28159 26.8585 2.42332C29.6273 2.84563 31.7551 5.24294 31.7551 8.12804ZM20.3459 1.31845C25.2046 1.3464 29.0994 5.3615 29.0994 10.2202V11.1469L26.7959 12.6337C26.3034 11.7896 25.3884 11.2206 24.3426 11.2206C23.003 11.2206 21.8776 12.152 21.5793 13.4005H19.0095C18.7112 12.152 17.5859 11.2206 16.2461 11.2206C15.2003 11.2206 14.2854 11.7895 13.7928 12.6337L11.4894 11.1469V10.1235C11.4895 5.25111 15.4673 1.29041 20.3459 1.31845ZM25.8633 14.0598C25.8633 14.9573 25.0844 15.676 24.1681 15.5732C23.4709 15.4949 22.9075 14.9316 22.8293 14.2344C22.7265 13.3181 23.4451 12.539 24.3426 12.539C25.0705 12.539 25.6799 13.0533 25.8282 13.7375C25.8295 13.7452 25.8318 13.7529 25.8333 13.7606C25.8528 13.8575 25.8633 13.9574 25.8633 14.0598ZM17.7596 14.2343C17.6814 14.9315 17.1179 15.4949 16.4208 15.5732C15.5044 15.676 14.7255 14.9573 14.7255 14.0598C14.7255 13.9578 14.736 13.8582 14.7553 13.7619C14.757 13.7536 14.7594 13.7453 14.7608 13.737C14.9093 13.0531 15.5185 12.5391 16.2461 12.5391C17.1437 12.539 17.8624 13.318 17.7596 14.2343ZM8.55237 13.9651V13.0184C8.55237 12.5532 8.93733 12.1603 9.39296 12.1603H10.1712V15.0288C10.1712 15.2515 10.1837 15.4767 10.2074 15.7035C9.30032 15.4984 8.55237 14.9385 8.55237 13.9651ZM10.1712 10.1235V10.842H9.39296C9.1996 10.842 9.0123 10.8681 8.83388 10.9165V8.12804C8.83388 5.24303 10.9617 2.84581 13.7304 2.42332C11.5538 4.28159 10.1712 7.04391 10.1712 10.1235ZM24.2764 25.4599C24.2764 27.6325 22.5275 29.4043 20.3636 29.4414C18.1358 29.4796 16.3124 27.6176 16.3124 25.3894V24.1157C16.7621 24.3632 17.2241 24.5784 17.6951 24.7531C18.6521 25.1054 19.4781 25.2695 20.2944 25.2695C21.1107 25.2695 21.9366 25.1054 22.8954 24.7525C23.3658 24.578 23.8272 24.3631 24.2764 24.116V25.4599ZM22.4385 23.5159C21.6318 23.8129 20.9505 23.9512 20.2945 23.9512C19.6385 23.9512 18.9571 23.8128 18.1521 23.5165C14.6028 22.1996 11.4895 18.2334 11.4895 15.0288V12.716L13.4099 13.9556C13.4087 13.9903 13.4073 14.0249 13.4073 14.0598C13.4073 15.6266 14.6808 16.9013 16.2462 16.9013C17.5861 16.9013 18.7116 15.9688 19.0098 14.7189H21.5793C21.8774 15.9688 23.0028 16.9013 24.3427 16.9013C25.908 16.9013 27.1817 15.6266 27.1817 14.0598C27.1817 14.0249 27.1803 13.9903 27.179 13.9556L29.0995 12.716V15.0289C29.0994 18.2334 25.9861 22.1996 22.4385 23.5159Z" fill="#51B1A6"/>
<path d="M18.3337 5.71133C19.6716 5.33972 20.9181 5.33981 22.2558 5.71133C22.3148 5.72776 22.3742 5.7355 22.4325 5.7355C22.7213 5.7355 22.9863 5.54433 23.0673 5.25254C23.1647 4.90177 22.9594 4.53843 22.6086 4.44104C21.03 4.00264 19.5594 4.00264 17.981 4.44104C17.6302 4.53843 17.4248 4.90177 17.5223 5.25254C17.6197 5.60331 17.983 5.8088 18.3337 5.71133Z" fill="#51B1A6"/>
<path d="M16.0707 8.32473C18.9519 7.52572 21.636 7.52563 24.5175 8.32473C24.5763 8.34108 24.6357 8.3489 24.6939 8.3489C24.9828 8.3489 25.2478 8.15756 25.3288 7.86577C25.426 7.515 25.2206 7.15174 24.8697 7.05445C21.7481 6.18864 18.8403 6.18864 15.7186 7.05445C15.3677 7.15174 15.1622 7.51491 15.2595 7.86577C15.3566 8.21645 15.72 8.42212 16.0707 8.32473Z" fill="#51B1A6"/>
</g>
<defs>
<clipPath id="clip0_312:822">
<rect width="45" height="45" fill="white"/>
</clipPath>
</defs>
</svg>
