<svg width="27" height="27" viewBox="0 0 27 27" fill="none" xmlns="http://www.w3.org/2000/svg">
<path d="M22.0152 14.4248L7.3902 24.5498C7.22142 24.6665 7.02391 24.7349 6.81905 24.7475C6.6142 24.7601 6.4098 24.7164 6.22799 24.6212C6.04619 24.5259 5.89391 24.3827 5.78763 24.2072C5.68136 24.0316 5.62514 23.8303 5.62508 23.625L5.62508 3.37501C5.62494 3.16967 5.68101 2.96821 5.7872 2.79247C5.89339 2.61672 6.04566 2.47339 6.2275 2.378C6.40934 2.28262 6.61382 2.23883 6.81877 2.25137C7.02373 2.2639 7.22135 2.3323 7.3902 2.44914L22.0152 12.5741C22.1642 12.6781 22.2859 12.8166 22.3699 12.9776C22.4539 13.1387 22.4978 13.3178 22.4978 13.4995C22.4978 13.6811 22.4539 13.8602 22.3699 14.0213C22.2859 14.1824 22.1642 14.3208 22.0152 14.4248Z" fill="#51B1A6"/>
</svg>
