<svg width="45" height="43" viewBox="0 0 45 43" fill="none" xmlns="http://www.w3.org/2000/svg">
<path d="M20.0589 28.2828C20.4691 28.7013 21.0145 28.9319 21.5946 28.9319C22.1747 28.9319 22.7201 28.7014 23.1303 28.2828L42.7904 8.22146C44.5365 6.43953 44.5365 3.54018 42.7903 1.75825C41.9444 0.895022 40.8196 0.419678 39.6233 0.419678C38.4269 0.419678 37.3022 0.895022 36.4563 1.75825L28.4616 9.9161C28.2093 10.1735 28.2093 10.591 28.4616 10.8483C28.714 11.1058 29.1229 11.1058 29.3752 10.8483L37.3699 2.69048C37.9718 2.07635 38.772 1.73804 39.6232 1.73804C40.4744 1.73804 41.2747 2.07626 41.8765 2.69048C43.119 3.9583 43.119 6.02123 41.8765 7.28914L22.2166 27.3505C22.0505 27.5201 21.8296 27.6134 21.5946 27.6134C21.3596 27.6134 21.1388 27.5201 20.9726 27.3505L17.0878 23.3866L27.5647 12.696C27.817 12.4386 27.817 12.0211 27.5647 11.7638C27.3124 11.5063 26.9034 11.5063 26.651 11.7638L0.489374 38.4593C-0.163125 39.1251 -0.163125 40.2083 0.489374 40.8742L0.68689 41.0757C1.65052 42.059 2.91073 42.5584 4.17636 42.5763C4.19962 42.5789 4.22313 42.5804 4.247 42.5804H26.8134C27.1703 42.5804 27.4594 42.2853 27.4594 41.9212C27.4594 41.5572 27.1703 41.262 26.8134 41.262H7.61467C7.68005 41.2019 7.74431 41.1399 7.80727 41.0757L11.6129 37.1924C11.8652 36.9349 11.8652 36.5175 11.6129 36.2602C11.3605 36.0027 10.9515 36.0027 10.6992 36.2602L6.8936 40.1434C5.43459 41.6324 3.06001 41.6325 1.60065 40.1434L1.40313 39.9419C1.25446 39.7902 1.25437 39.5434 1.40313 39.3917L10.995 29.6039L14.0161 32.6868C14.0478 32.7192 14.0544 32.756 14.0544 32.7811C14.0544 32.8064 14.0478 32.8432 14.0161 32.8755L12.3643 34.561C12.112 34.8184 12.112 35.2358 12.3643 35.4933C12.6167 35.7507 13.0257 35.7507 13.278 35.4933L14.9296 33.8079C15.1985 33.5336 15.3465 33.169 15.3465 32.7811C15.3465 32.3932 15.1985 32.0287 14.9297 31.7545L14.2574 31.0685L18.5232 26.7157L20.0589 28.2828ZM13.3437 30.1361L11.9086 28.6716L16.1743 24.3189L17.6094 25.7833L13.3437 30.1361Z" fill="#51B1A6"/>
<path d="M22.7471 19.6534V23.239C22.7471 23.6031 23.0363 23.8982 23.3931 23.8982C23.75 23.8982 24.0391 23.6031 24.0391 23.239V19.6534C24.0391 19.2893 23.75 18.9941 23.3931 18.9941C23.0363 18.9941 22.7471 19.2893 22.7471 19.6534Z" fill="#51B1A6"/>
<path d="M25.5098 16.8341V20.4197C25.5098 20.7838 25.7989 21.079 26.1558 21.079C26.5126 21.079 26.8018 20.7838 26.8018 20.4197V16.8341C26.8018 16.47 26.5126 16.1749 26.1558 16.1749C25.799 16.1749 25.5098 16.47 25.5098 16.8341Z" fill="#51B1A6"/>
<path d="M29.5645 17.6005V14.0149C29.5645 13.6508 29.2754 13.3557 28.9185 13.3557C28.5616 13.3557 28.2725 13.6508 28.2725 14.0149V17.6005C28.2725 17.9646 28.5616 18.2597 28.9185 18.2597C29.2754 18.2597 29.5645 17.9646 29.5645 17.6005Z" fill="#51B1A6"/>
<path d="M32.3272 14.7816V11.1959C32.3272 10.8318 32.0381 10.5367 31.6812 10.5367C31.3243 10.5367 31.0352 10.8318 31.0352 11.1959V14.7816C31.0352 15.1456 31.3243 15.4408 31.6812 15.4408C32.038 15.4408 32.3272 15.1456 32.3272 14.7816Z" fill="#51B1A6"/>
<path d="M41.3255 5.39025C41.3255 4.21183 40.3859 3.25305 39.2311 3.25305C38.0762 3.25305 37.1367 4.21183 37.1367 5.39025C37.1367 6.56868 38.0762 7.52737 39.2311 7.52737C40.3859 7.52737 41.3255 6.56868 41.3255 5.39025ZM38.4287 5.39025C38.4287 4.93882 38.7887 4.5715 39.231 4.5715C39.6735 4.5715 40.0334 4.93882 40.0334 5.39025C40.0334 5.84169 39.6734 6.20892 39.231 6.20892C38.7887 6.20892 38.4287 5.84169 38.4287 5.39025Z" fill="#51B1A6"/>
</svg>
