<svg width="9" height="7" viewBox="0 0 9 7" fill="none" xmlns="http://www.w3.org/2000/svg">
<path d="M8.94857 0.250116C8.91037 0.174729 8.85305 0.111589 8.78278 0.0675107C8.71251 0.0234322 8.63196 8.87956e-05 8.54983 0H0.449079C0.367101 0.0003511 0.286766 0.0238668 0.216714 0.068018C0.146662 0.112169 0.0895423 0.175286 0.0514984 0.25058C0.0134545 0.325873 -0.0040743 0.410496 0.000796933 0.495347C0.00566817 0.580198 0.0327552 0.662067 0.079145 0.73215L4.12952 6.7984C4.17081 6.86057 4.22605 6.91141 4.2905 6.94653C4.35494 6.98165 4.42665 7 4.49946 7C4.57226 7 4.64397 6.98165 4.70841 6.94653C4.77286 6.91141 4.8281 6.86057 4.86939 6.7984L8.91977 0.73215C8.96661 0.662211 8.99406 0.580294 8.99914 0.495307C9.00422 0.41032 8.98673 0.325515 8.94857 0.250116ZM4.49946 5.71301L1.30776 0.933269H4.49945H7.69115L4.49946 5.71301Z" fill="#5A5A75"/>
</svg>
