<svg width="45" height="45" viewBox="0 0 45 45" fill="none" xmlns="http://www.w3.org/2000/svg">
<g clip-path="url(#clip0_312:863)">
<path d="M14.8831 35.1982H11.2954C10.3294 35.1982 9.42159 34.8219 8.73905 34.1384C8.0565 33.4548 7.68129 32.5466 7.68261 31.5807L7.69212 24.3247C7.69247 24.0799 7.55725 23.8548 7.34077 23.7403L5.27508 22.6499L7.80894 18.2319C7.98915 17.9175 8.08441 17.5598 8.08441 17.1975V12.2476C8.08441 11.0245 8.58903 9.83586 9.46896 8.98631L9.96645 8.50589H12.5224C15.76 8.50589 18.394 11.1399 18.394 14.3775V14.3915C18.394 14.7561 18.6895 15.0517 19.0543 15.0517C19.419 15.0517 19.7145 14.7561 19.7145 14.3915V14.3775C19.7145 10.4117 16.4882 7.18535 12.5224 7.18535H9.81916C8.49237 7.18535 7.41287 6.10585 7.41287 4.77906V1.63422C7.41287 1.46132 7.55355 1.32055 7.72654 1.32055H22.293C26.3849 1.32055 30.3623 2.76769 33.4927 5.39531C33.7722 5.62975 34.1887 5.59339 34.4229 5.31405C34.6574 5.0348 34.621 4.6183 34.3418 4.38386C30.9738 1.55693 26.6948 7.62939e-06 22.293 7.62939e-06H7.72654C6.8254 7.62939e-06 6.09232 0.733086 6.09232 1.63422V4.77914C6.09232 6.32268 7.03563 7.64992 8.37598 8.21502C7.34904 9.29673 6.76386 10.752 6.76386 12.2476V17.1976C6.76386 17.3299 6.72909 17.4604 6.66333 17.575L4.12955 21.993C3.95022 22.3057 3.90665 22.6685 4.00674 23.0147C4.10693 23.361 4.33741 23.6445 4.65601 23.8131L6.37096 24.721L6.36189 31.579C6.36013 32.8979 6.8725 34.1383 7.80454 35.0715C8.73658 36.0047 9.97631 36.5187 11.2952 36.5187H14.2226V44.3396C14.2226 44.7043 14.5182 44.9999 14.8829 44.9999C15.2477 44.9999 15.5432 44.7043 15.5432 44.3396V35.8584C15.5434 35.4939 15.2477 35.1982 14.8831 35.1982Z" fill="#51B1A6"/>
<path d="M36.4236 6.42532C36.1838 6.15065 35.7667 6.12239 35.492 6.3622C35.2173 6.60201 35.189 7.01913 35.4288 7.29389C38.1992 10.467 39.7248 14.5365 39.7248 18.7529C39.7248 19.994 39.592 21.2201 39.3359 22.4128L36.4843 22.1036C36.1193 22.0642 35.7959 22.3264 35.7567 22.6889C35.7174 23.0514 35.9793 23.3771 36.3419 23.4165L39.0055 23.7053C38.0771 26.838 36.2773 29.6812 33.7665 31.8763L30.5103 34.7233C30.3192 34.8904 30.0744 34.9729 29.821 34.9558C29.5676 34.9385 29.3363 34.8235 29.1695 34.6321L25.0888 29.9456C24.7484 29.5547 24.7867 28.9566 25.1744 28.6124L27.579 26.4768C28.3182 25.8202 28.7423 24.8766 28.7423 23.8877L28.7422 22.5927L33.464 23.1045C33.4882 23.1071 33.5122 23.1084 33.5359 23.1084C33.8687 23.1084 34.1549 22.8576 34.1915 22.5192C34.2308 22.1567 33.9688 21.831 33.6063 21.7916L28.5624 21.2448C28.1018 19.8729 26.8046 18.8812 25.2797 18.8812C23.3703 18.8812 21.8169 20.4346 21.8169 22.344V23.6111L19.8285 25.0315C19.8168 25.0399 19.7927 25.0571 19.7534 25.037C19.7141 25.0168 19.7141 24.9869 19.7141 24.9726V17.2055C19.7141 16.8409 19.4186 16.5453 19.0538 16.5453C18.6891 16.5453 18.3936 16.8409 18.3936 17.2055V24.9726C18.3936 25.4968 18.6831 25.9714 19.1492 26.2112C19.6154 26.4509 20.1699 26.4107 20.5962 26.106L22.861 24.4881C23.0346 24.3641 23.1376 24.164 23.1376 23.9508V22.344C23.1376 21.1628 24.0986 20.2018 25.2798 20.2018C26.4608 20.2018 27.4216 21.1626 27.4218 22.3436L27.4219 23.8878C27.4219 24.4995 27.1596 25.0833 26.7022 25.4894L24.2975 27.625C23.3709 28.448 23.2791 29.8781 24.093 30.8128L28.1738 35.4992C28.3586 35.7114 28.5768 35.8837 28.8178 36.0123V44.3397C28.8178 44.7044 29.1133 45 29.478 45C29.8428 45 30.1383 44.7044 30.1383 44.3397V36.2634C30.5955 36.2131 31.0261 36.0266 31.3797 35.7175L34.6359 32.8705C38.7092 29.3091 41.0455 24.1635 41.0455 18.7528C41.0454 14.2171 39.404 9.83911 36.4236 6.42532Z" fill="#51B1A6"/>
<path d="M12.8071 30.1456H10.0128C9.64808 30.1456 9.35254 30.4413 9.35254 30.8059C9.35254 31.1706 9.64808 31.4662 10.0128 31.4662H12.8071C15.1981 31.4662 17.1434 33.4114 17.1434 35.8024V42.5288C17.1434 42.8935 17.4389 43.1891 17.8037 43.1891C18.1684 43.1891 18.4639 42.8935 18.4639 42.5288V35.8024C18.4639 32.6833 15.9262 30.1456 12.8071 30.1456Z" fill="#51B1A6"/>
<path d="M13.6708 27.1842H9.92492C9.56019 27.1842 9.26465 27.4799 9.26465 27.8445C9.26465 28.2092 9.56019 28.5048 9.92492 28.5048H13.6708C18.8529 28.5048 23.0689 32.7207 23.0689 37.9029V42.5288C23.0689 42.8934 23.3644 43.1891 23.7292 43.1891C24.0939 43.1891 24.3895 42.8934 24.3895 42.5288V37.9029C24.3895 31.9926 19.5811 27.1842 13.6708 27.1842Z" fill="#51B1A6"/>
</g>
<defs>
<clipPath id="clip0_312:863">
<rect width="45" height="45" fill="white"/>
</clipPath>
</defs>
</svg>
